<svg width="32" height="11" viewBox="0 0 32 11" fill="none" xmlns="http://www.w3.org/2000/svg">
<path d="M4.80469 7.35938H1.64062V10.6094H0V0H4.80469C6.79688 0 8.50781 1.16406 8.50781 3.70312C8.50781 5.99219 6.79688 7.35938 4.80469 7.35938ZM4.5 1.49219H1.64062V5.88281H4.5C5.76562 5.88281 6.79688 5.0625 6.79688 3.71875C6.79688 2.23438 5.76562 1.49219 4.5 1.49219ZM11.7031 3.10938V4.13281C12.125 3.3125 12.8359 2.95312 13.6562 2.95312C14.2422 2.95312 14.6875 3.14062 14.6875 3.14062L14.5234 4.5625C14.4375 4.53125 14.1016 4.39062 13.6094 4.39062C12.7812 4.39062 11.7031 4.82812 11.7031 6.52344V10.6094H10.1484V3.10938H11.7031ZM22.1719 8.625L22.4062 10.0312C21.5391 10.5234 20.5938 10.7656 19.5469 10.7656C17.0234 10.7656 15.2812 9.17188 15.2812 6.85938C15.2812 4.625 16.8984 2.95312 19.1406 2.95312C21.5781 2.95312 23.1484 4.98438 22.7031 7.42188H16.8672C17.1406 8.64844 18.0938 9.32812 19.5469 9.32812C20.4219 9.32812 21.1719 9.10156 22.1719 8.625ZM16.9141 6.1875H21.3047C21.2031 5.10156 20.4219 4.36719 19.1875 4.36719C17.9531 4.36719 17.0312 5.10156 16.9141 6.1875ZM27.3516 9.09375L29.5625 3.10938H31.2266L28.2734 10.6094H26.4297L23.4766 3.10938H25.1406L27.3516 9.09375Z" fill="black"/>
</svg>
