<?xml version="1.0" standalone="no"?>
<!DOCTYPE svg PUBLIC "-//W3C//DTD SVG 1.1//EN" "http://www.w3.org/Graphics/SVG/1.1/DTD/svg11.dtd" >
<svg>
<metadata>
Created by FontForge 20090622 at Sun Nov 17 21:32:45 2019
 By deploy user
&#194;&#169; Fabian Fohrer 2015
</metadata>
<defs>
<font id="Fabrik-Regular" horiz-adv-x="568" >
  <font-face 
    font-family="Fabrik"
    font-weight="400"
    font-stretch="normal"
    units-per-em="1000"
    panose-1="0 0 5 0 0 0 0 0 0 0"
    ascent="800"
    descent="-200"
    x-height="500"
    cap-height="700"
    bbox="-30 -225 1116 906"
    underline-thickness="50"
    underline-position="-50"
    unicode-range="U+0020-U+2713"
  />
<missing-glyph horiz-adv-x="640" 
d="M80 696q0 4 4 4h472q4 0 4 -4v-692q0 -4 -4 -4h-472q-4 0 -4 4v692zM159 628v-556h322v556h-322z" />
    <glyph glyph-name="f_f" unicode="ff" horiz-adv-x="574" 
d="M447 500h107v-80h-107v-420h-85v420h-202v-420h-85v420h-55v80h55v60q0 63 30 106.5t94 43.5h48v-80h-25q-22 0 -35.5 -7.5t-19 -23t-6.5 -26t-1 -28.5v-45h202v60q0 63 30 106.5t94 43.5h48v-80h-25q-22 0 -35.5 -7.5t-19 -23t-6.5 -26t-1 -28.5v-45z" />
    <glyph glyph-name="f_f_i" unicode="ffi" horiz-adv-x="819" 
d="M692 725q28 0 47.5 -19.5t19.5 -47.5t-19.5 -48t-47.5 -20t-48 20t-20 48t20 47.5t48 19.5zM734 500v-500h-85v420h-202v-420h-85v420h-202v-420h-85v420h-55v80h55v60q0 63 30 106.5t94 43.5h48v-80h-25q-22 0 -35.5 -7.5t-19 -23t-6.5 -26t-1 -28.5v-45h202v60
q0 63 30 106.5t94 43.5h48v-80h-25q-22 0 -35.5 -7.5t-19 -23t-6.5 -26t-1 -28.5v-45h287z" />
    <glyph glyph-name="f_f_l" unicode="ffl" horiz-adv-x="881" 
d="M796 80h25v-80h-48q-64 0 -94 43.5t-30 106.5v270h-202v-420h-85v420h-202v-420h-85v420h-55v80h55v60q0 63 30 106.5t94 43.5h48v-80h-25q-22 0 -35.5 -7.5t-19 -23t-6.5 -26t-1 -28.5v-45h202v60q0 63 30 106.5t94 43.5h48v-80h-25q-22 0 -35.5 -7.5t-19 -23t-6.5 -26
t-1 -28.5v-45h202v215h85v-550q0 -18 1 -28.5t6.5 -26t19 -23t35.5 -7.5z" />
    <glyph glyph-name=".notdef" horiz-adv-x="640" 
d="M80 696q0 4 4 4h472q4 0 4 -4v-692q0 -4 -4 -4h-472q-4 0 -4 4v692zM159 628v-556h322v556h-322z" />
    <glyph glyph-name=".null" horiz-adv-x="0" 
 />
    <glyph glyph-name="nonmarkingreturn" horiz-adv-x="333" 
 />
    <glyph glyph-name="space" unicode=" " horiz-adv-x="250" 
 />
    <glyph glyph-name="exclam" unicode="!" horiz-adv-x="315" 
d="M189 197l18 503h-99l18 -503h63zM157 -10q-28 0 -47.5 19.5t-19.5 48.5q0 28 19.5 47.5t47.5 19.5t48 -19.5t20 -47.5t-20 -48t-48 -20z" />
    <glyph glyph-name="quotedbl" unicode="&#x22;" horiz-adv-x="347" 
d="M75 431q-23 139 -33 194q-7 39 9.5 60t43.5 21t43.5 -21t9.5 -60l-33 -194h-40zM232 431q-23 139 -33 194q-7 39 9.5 60t43.5 21t43.5 -21t9.5 -60l-33 -194h-40z" />
    <glyph glyph-name="numbersign" unicode="#" horiz-adv-x="630" 
d="M580 370h-95l-35 -160h90v-70h-105l-30 -140h-80l30 140h-146l-30 -140h-79l30 140h-80v70h95l35 160h-90v70h105l30 140h79l-30 -140h146l30 140h80l-30 -140h80v-70zM370 210l35 160h-146l-35 -160h146z" />
    <glyph glyph-name="dollar" unicode="$" horiz-adv-x="560" 
d="M510 190q0 -82 -46.5 -136t-135.5 -66v-73h-70v71q-42 4 -80 22.5t-63 44t-40.5 46.5t-24.5 39l73 34q57 -96 135 -110l1 281l-41 23q-120 66 -120 154q0 60 44 107.5t117 55.5l-1 72h70l-1 -74q40 -8 71 -32t42 -43l12 -20l-68 -37l-5.5 11t-18 22t-33.5 23v-213l41 -23
q142 -79 142 -179zM255 433l4 -2v180q-35 -6 -58 -27.5t-23 -57.5q0 -18 6 -32.5t21 -27t22 -17t28 -16.5zM328 61q42 10 71 40.5t29 77.5q0 32 -16 57t-33 37t-48 30l-4 2z" />
    <glyph glyph-name="percent" unicode="%" horiz-adv-x="820" 
d="M607 700h90l-475 -700h-90zM210 355q-66 0 -110.5 44t-44.5 111t44.5 111t110.5 44t110.5 -44t44.5 -111t-44.5 -111t-110.5 -44zM210 432q34 0 55.5 22t21.5 56t-21.5 55.5t-55.5 21.5t-56 -21.5t-22 -55.5t22 -56t56 -22zM620 35q-66 0 -110.5 44t-44.5 111t44.5 111
t110.5 44t110.5 -44t44.5 -111t-44.5 -111t-110.5 -44zM620 112q34 0 55.5 22t21.5 56t-21.5 55.5t-55.5 21.5t-56 -21.5t-22 -55.5t22 -56t56 -22z" />
    <glyph glyph-name="ampersand" unicode="&#x26;" horiz-adv-x="628" 
d="M618 260q-35 -69 -94 -138l94 -122h-97l-52 67q-93 -79 -187 -79q-43 0 -80.5 12.5t-60.5 30.5t-40 36t-24 31l-7 12v140q17 26 44.5 50.5t46.5 37.5t65 42l-50 65q-39 50 -40.5 112.5t42.5 109.5t126 47q98 0 144.5 -44t46.5 -105q0 -60 -35.5 -106t-118.5 -100
l134 -173q20 25 38.5 52.5t26.5 43.5l8 15zM308 644q-38 0 -64 -23.5t-27.5 -58.5t26.5 -75l49 -64q66 44 90.5 71t24.5 69q0 32 -24 56.5t-75 24.5zM285 64q66 0 137 64l-148 190q-16 -10 -25 -15q-43 -25 -95 -75v-109q51 -55 131 -55z" />
    <glyph glyph-name="quotesingle" unicode="'" horiz-adv-x="190" 
d="M75 431q-23 139 -33 194q-7 39 9.5 60t43.5 21t43.5 -21t9.5 -60l-33 -194h-40z" />
    <glyph glyph-name="parenleft" unicode="(" horiz-adv-x="298" 
d="M245 -175q-8 7 -21 21.5t-46.5 63t-59.5 103t-47 141t-21 176.5q0 91 20 175t49 140t57.5 98.5t48.5 62.5l20 19l53 -51q-7 -6 -17.5 -18t-38.5 -53.5t-49 -88.5t-38.5 -124t-17.5 -160q0 -80 16.5 -156.5t40 -128t47.5 -91.5t41 -59l16 -19z" />
    <glyph glyph-name="parenright" unicode=")" horiz-adv-x="298" 
d="M53 -175l-53 51q7 7 17.5 20t38.5 57.5t49 93.5t38.5 126t17.5 157q0 83 -16.5 159t-40 125.5t-47.5 87.5t-41 55l-16 17l53 51q8 -7 21 -20.5t46.5 -60.5t59.5 -100t47 -138t21 -176q0 -90 -20 -175.5t-49 -142.5t-57.5 -101.5t-48.5 -64.5z" />
    <glyph glyph-name="asterisk" unicode="*" horiz-adv-x="426" 
d="M391 542l-124 -35l79 -101l-62 -45l-71 107l-72 -107l-62 46l80 101l-124 35l24 73l120 -44l-4 128h76l-4 -129l120 44z" />
    <glyph glyph-name="plus" unicode="+" horiz-adv-x="610" 
d="M555 365v-75h-210v-202h-80v202h-210v75h210v202h80v-202h210z" />
    <glyph glyph-name="comma" unicode="," horiz-adv-x="276" 
d="M206 59q0 -67 -37.5 -106t-96.5 -39v33q31 0 55 20t24 44q-39 -7 -60 15t-21 52q0 26 20 44.5t43 18.5q32 0 52 -20t21 -62z" />
    <glyph glyph-name="hyphen" unicode="-" horiz-adv-x="450" 
d="M45 370h360v-85h-360v85z" />
    <glyph glyph-name="period" unicode="." horiz-adv-x="275" 
d="M137 -10q-28 0 -47.5 19.5t-19.5 48.5q0 28 19.5 47.5t47.5 19.5t48 -19.5t20 -47.5t-20 -48t-48 -20z" />
    <glyph glyph-name="slash" unicode="/" horiz-adv-x="433" 
d="M350 725h83l-350 -750h-83z" />
    <glyph glyph-name="zero" unicode="0" horiz-adv-x="581" 
d="M290 -15q-104 0 -172 87.5t-68 217.5q0 131 68 218t172 87t172 -87t68 -218t-68 -218t-172 -87zM290 69q68 0 108.5 62.5t40.5 158.5t-40.5 158.5t-108.5 62.5t-108 -62t-40 -159t40 -159t108 -62z" />
    <glyph glyph-name="one" unicode="1" horiz-adv-x="412" 
d="M274 78h131v-78h-360v78h142v332h-142v63q35 0 59.5 3.5t48.5 14t36.5 33t12.5 56.5h72v-502z" />
    <glyph glyph-name="two" unicode="2" horiz-adv-x="516" 
d="M181 78h295v-78h-430v83l340 246v123q-38 58 -125 58q-29 0 -54.5 -10.5t-42.5 -25t-29.5 -29t-18.5 -25.5l-5 -10l-76 44l8 15.5t25.5 33.5t45.5 43t68.5 34t93.5 15q40 0 75 -11.5t56.5 -28.5t38 -33.5t22.5 -27.5l7 -12v-198z" />
    <glyph glyph-name="three" unicode="3" horiz-adv-x="522" 
d="M272 317q77 14 142.5 -39.5t65.5 -158.5q0 -95 -65.5 -159t-155.5 -64q-44 0 -83 15t-63.5 36t-43 42.5t-26.5 36.5l-8 15l63 49q2 -4 6.5 -11.5t19 -26.5t31 -33.5t43 -26.5t54.5 -12q59 0 100 41.5t41 100.5q0 51 -34 92t-92 41q-27 0 -48.5 -6.5t-30.5 -13.5l-8 -7
l-47 61l214 212h-272v79h390v-79z" />
    <glyph glyph-name="four" unicode="4" horiz-adv-x="557" 
d="M538 78v-78h-105v-140h-87v140h-311v90l279 490h119v-502h105zM123 78h223v394z" />
    <glyph glyph-name="five" unicode="5" horiz-adv-x="517" 
d="M281 368q82 0 140.5 -64.5t58.5 -158.5q0 -109 -63 -179t-161 -70q-45 0 -84 14.5t-63 35t-41.5 41t-25.5 35.5l-7 14l73 43l5.5 -10.5t16.5 -24t28.5 -30.5t41.5 -23.5t56 -10.5q63 0 99.5 44.5t36.5 116.5q0 74 -36 109.5t-90 35.5q-33 0 -59.5 -12t-42 -32
t-23.5 -34.5t-13 -29.5l-3 -10h-65l30 412h340v-79h-260l-15 -184q47 51 126 51z" />
    <glyph glyph-name="six" unicode="6" horiz-adv-x="546" 
d="M367 595q-66 0 -121.5 -41.5t-84 -100.5t-28.5 -118l3 5q3 6 9 15t15 19.5t22.5 21t30 19.5t39.5 14.5t49 5.5q87 0 148 -59t61 -161q0 -94 -59.5 -162t-166.5 -68q-114 0 -174 90.5t-60 251.5q0 89 37 166.5t113.5 128.5t176.5 51h63v-78h-73zM285 69q60 0 98 41t38 100
q0 64 -37.5 100.5t-94.5 36.5q-58 0 -95.5 -39.5t-37.5 -98.5q0 -60 35.5 -100t93.5 -40z" />
    <glyph glyph-name="seven" unicode="7" horiz-adv-x="420" 
d="M5 580h410v-78q-211 -167 -242 -502h-87q5 97 29 184t59 149t64 100.5t59 68.5h-292v78z" />
    <glyph glyph-name="eight" unicode="8" horiz-adv-x="551" 
d="M392 386q5 -2 12 -6.5t26.5 -20t34 -33.5t26.5 -48t12 -63q0 -106 -68.5 -168t-160.5 -62t-160.5 62t-68.5 168q0 33 11.5 63t28 48.5t32.5 33t27 20.5l12 6q-3 2 -7.5 5.5t-17 15.5t-22 26t-17 37t-7.5 48q0 69 52.5 118t136.5 49t136.5 -49t52.5 -118q0 -25 -7.5 -47.5
t-17.5 -37.5t-20.5 -26t-17.5 -16zM274 424q47 0 77.5 26.5t30.5 67.5q0 39 -30.5 64.5t-77.5 25.5q-48 0 -79 -25.5t-31 -64.5q0 -41 31 -67.5t79 -26.5zM274 68q64 0 103 39.5t39 102.5q0 52 -41.5 96t-100.5 44t-100.5 -44t-41.5 -96q0 -63 39 -102.5t103 -39.5z" />
    <glyph glyph-name="nine" unicode="9" horiz-adv-x="553" 
d="M183 -15q99 0 166.5 79t67.5 171l-3 -5q-3 -5 -9 -13t-15 -17.5t-22.5 -19t-30 -17.5t-39.5 -13t-49 -5q-87 0 -148 59t-61 161q0 94 59.5 162t166.5 68q113 0 173.5 -93t60.5 -249q0 -150 -87.5 -248t-239.5 -98h-43v78h53zM265 511q-60 0 -98 -41t-38 -100
q0 -64 37.5 -100.5t94.5 -36.5q58 0 95.5 39.5t37.5 98.5q0 60 -35.5 100t-93.5 40z" />
    <glyph glyph-name="colon" unicode=":" horiz-adv-x="285" 
d="M142 375q-28 0 -47.5 19.5t-19.5 48.5q0 28 19.5 47.5t47.5 19.5t48 -19.5t20 -47.5t-20 -48t-48 -20zM142 -10q-28 0 -47.5 19.5t-19.5 48.5q0 28 19.5 47.5t47.5 19.5t48 -19.5t20 -47.5t-20 -48t-48 -20z" />
    <glyph glyph-name="semicolon" unicode=";" horiz-adv-x="290" 
d="M142 375q-28 0 -47.5 19.5t-19.5 48.5q0 28 19.5 47.5t47.5 19.5t48 -19.5t20 -47.5t-20 -48t-48 -20zM215 59q0 -67 -37.5 -106t-96.5 -39v33q31 0 55 20t24 44q-39 -7 -60 15t-21 52q0 26 20 44.5t43 18.5q32 0 52 -20t21 -62z" />
    <glyph glyph-name="less" unicode="&#x3c;" horiz-adv-x="550" 
d="M35 207v104l480 197v-93l-405 -156l405 -156v-93z" />
    <glyph glyph-name="equal" unicode="=" horiz-adv-x="610" 
d="M65 466h480v-75h-480v75zM65 266h480v-75h-480v75z" />
    <glyph glyph-name="greater" unicode="&#x3e;" horiz-adv-x="550" 
d="M515 207l-480 -197v93l405 156l-405 156v93l480 -197v-104z" />
    <glyph glyph-name="question" unicode="?" horiz-adv-x="451" 
d="M226 715q79 0 134.5 -51t55.5 -124q0 -42 -13.5 -73.5t-35 -51t-44 -34.5t-44 -33.5t-30.5 -39.5v-112h-78v157q12 26 33 46t41 32t39 25t30.5 32.5t11.5 45.5q0 42 -25 69t-74 27q-34 0 -62.5 -24.5t-40.5 -49.5l-12 -24l-77 42q31 65 80 103t111 38zM209 -10
q-28 0 -47.5 19.5t-19.5 48.5q0 28 19.5 47.5t47.5 19.5t48 -19.5t20 -47.5t-20 -48t-48 -20z" />
    <glyph glyph-name="at" unicode="@" horiz-adv-x="840" 
d="M542 514h74l-44 -306h129q24 52 24 128q0 133 -84 218.5t-215 85.5t-216 -85.5t-85 -218.5q0 -134 85 -220t216 -86q76 0 152 43l44 -68q-88 -50 -196 -50q-165 0 -273 107.5t-108 273.5q0 164 108 271.5t273 107.5q164 0 271.5 -107.5t107.5 -271.5q0 -102 -51 -195
h-250l-12 31q-40 -34 -106 -34q-60 0 -109.5 52t-49.5 125q0 101 53 161t124 60q94 0 133 -61zM414 211q45 0 73.5 35.5t28.5 98.5q0 48 -22 81.5t-70 33.5q-47 0 -79.5 -36t-32.5 -99q0 -50 28 -82t74 -32z" />
    <glyph glyph-name="A" unicode="A" horiz-adv-x="632" 
d="M524 0l-68 199h-280l-68 -199h-98l246 700h120l246 -700h-98zM205 284h222l-111 325z" />
    <glyph glyph-name="B" unicode="B" horiz-adv-x="605" 
d="M436 392q124 -38 124 -173q0 -148 -132 -219h-338v700h255q78 0 131.5 -49.5t53.5 -125.5q0 -39 -24 -75.5t-70 -57.5zM345 615h-165v-184h165q31 0 60.5 21.5t29.5 62.5q0 45 -23.5 72.5t-66.5 27.5zM395 85q28 15 49 49.5t21 77.5q0 63 -41.5 100.5t-107.5 37.5h-136
v-265h215z" />
    <glyph glyph-name="C" unicode="C" horiz-adv-x="685" 
d="M645 178q-3 -8 -9.5 -21t-31 -46t-54 -58.5t-79.5 -46.5t-107 -21q-132 0 -225.5 106.5t-93.5 258.5q0 153 93.5 259t225.5 106q41 0 78.5 -10.5t64.5 -27.5t50.5 -38t38.5 -41.5t26 -37.5t16 -28l4 -10l-80 -43q-2 6 -7 16t-22.5 35t-38.5 44t-56 35t-74 16
q-102 0 -163 -81.5t-61 -193.5t61 -193.5t163 -81.5q39 0 74 15t57.5 36.5t39 43.5t23.5 37l7 15z" />
    <glyph glyph-name="D" unicode="D" horiz-adv-x="667" 
d="M280 700q143 0 241.5 -104t98.5 -263q0 -113 -53 -201.5t-141 -131.5h-336v700h190zM392 85q51 27 92 88.5t41 159.5q0 115 -73.5 198.5t-171.5 83.5h-100v-530h212z" />
    <glyph glyph-name="E" unicode="E" horiz-adv-x="592" 
d="M180 85h350v-85h-440v700h430v-85h-340v-217h290v-85h-290v-228z" />
    <glyph glyph-name="F" unicode="F" horiz-adv-x="541" 
d="M510 615h-330v-217h270v-85h-270v-313h-90v700h420v-85z" />
    <glyph glyph-name="G" unicode="G" horiz-adv-x="693" 
d="M332 273v85h300v-358h-67l-11 91q-31 -49 -83.5 -77.5t-110.5 -28.5q-139 0 -227 105t-88 260q0 156 87.5 260.5t227.5 104.5q42 0 80 -10.5t65 -27.5t50 -38t37.5 -41.5t25 -37.5t14.5 -28l5 -10l-80 -43q-2 6 -6 16t-20 35t-36.5 44t-56.5 35t-78 16q-91 0 -155.5 -82
t-64.5 -193t64.5 -193t155.5 -82q88 0 141.5 58t53.5 140h-223z" />
    <glyph glyph-name="H" unicode="H" horiz-adv-x="710" 
d="M530 700h90v-700h-90v313h-350v-313h-90v700h90v-302h350v302z" />
    <glyph glyph-name="I" unicode="I" horiz-adv-x="271" 
d="M90 700h91v-700h-91v700z" />
    <glyph glyph-name="J" unicode="J" horiz-adv-x="558" 
d="M150 700h328v-454q0 -109 -69 -185t-175 -76q-64 0 -121 32.5t-93 87.5v185h90v-142q15 -28 50 -50.5t83 -22.5q63 0 104 52t41 119v370h-238v84z" />
    <glyph glyph-name="K" unicode="K" horiz-adv-x="629" 
d="M512 0l-189 296q-69 -48 -144 -84v-212h-89v700h89v-388q188 104 270 226v162h90v-200q-67 -84 -144 -148l219 -352h-102z" />
    <glyph glyph-name="L" unicode="L" horiz-adv-x="555" 
d="M180 85h350v-85h-440v700h90v-615z" />
    <glyph glyph-name="M" unicode="M" horiz-adv-x="786" 
d="M725 700v-700h-89v546l-192 -546h-103l-192 546v-546h-89v700h118l214 -606l205 606h128z" />
    <glyph glyph-name="N" unicode="N" horiz-adv-x="644" 
d="M490 700h90v-700h-90l-340 542v-542h-90v700h90l340 -542v542z" />
    <glyph glyph-name="O" unicode="O" horiz-adv-x="730" 
d="M365 -15q-134 0 -227 106.5t-93 258.5q0 153 93 259t227 106q135 0 227.5 -106t92.5 -259t-92.5 -259t-227.5 -106zM365 75q98 0 161.5 83.5t63.5 191.5t-63.5 191.5t-161.5 83.5t-161.5 -83.5t-63.5 -191.5t63.5 -191.5t161.5 -83.5z" />
    <glyph glyph-name="P" unicode="P" horiz-adv-x="591" 
d="M310 700q104 0 177 -73t73 -177q0 -76 -42 -138.5t-110 -91.5h-228v-220h-90v700h220zM377 305q88 46 88 146q0 65 -40 114.5t-105 49.5h-140v-310h197z" />
    <glyph glyph-name="Q" unicode="Q" horiz-adv-x="734" 
d="M567 65q15 -22 78 -22h21v-85h-41q-97 0 -131 57q-62 -30 -129 -30q-134 0 -227 106.5t-93 258.5q0 153 93 259t227 106q135 0 227.5 -106t92.5 -259q0 -85 -31.5 -159.5t-86.5 -125.5zM140 350q0 -108 63.5 -191.5t161.5 -83.5t161.5 83.5t63.5 191.5t-63.5 191.5
t-161.5 83.5t-161.5 -83.5t-63.5 -191.5z" />
    <glyph glyph-name="R" unicode="R" horiz-adv-x="615" 
d="M470 0l-123 243h-167v-243h-90v700h220q105 0 177.5 -68.5t72.5 -171.5q0 -57 -34 -114t-91 -85l134 -261h-99zM180 615v-287h185q40 7 70 44.5t30 84.5q0 67 -49 112.5t-106 45.5h-130z" />
    <glyph glyph-name="S" unicode="S" horiz-adv-x="571" 
d="M385 569l-11 16t-33.5 26t-57.5 16q-43 0 -71 -21.5t-28 -56.5q0 -53 72 -94l118 -66q76 -42 113.5 -86t37.5 -104q0 -93 -64.5 -153.5t-180.5 -60.5q-53 0 -98 18t-74.5 47t-45.5 51t-27 44l80 43q41 -62 82.5 -87.5t100.5 -25.5q51 0 92 30t41 82q0 25 -7 44t-25.5 35
t-29 23t-38.5 22l-118 66q-128 72 -128 166q0 68 56.5 120t145.5 52q38 0 70 -10.5t51 -25.5t33 -30.5t19 -26.5l5 -10z" />
    <glyph glyph-name="T" unicode="T" horiz-adv-x="540" 
d="M528 700v-85h-214v-615h-90v615h-214v85h518z" />
    <glyph glyph-name="U" unicode="U" horiz-adv-x="680" 
d="M600 700v-415q0 -145 -69.5 -222.5t-190.5 -77.5t-190.5 77.5t-69.5 222.5v415h90v-415q0 -104 50 -157t120 -53t120 53t50 157v415h90z" />
    <glyph glyph-name="V" unicode="V" horiz-adv-x="590" 
d="M580 700l-225 -700h-120l-225 700h102l183 -597l182 597h103z" />
    <glyph glyph-name="W" unicode="W" horiz-adv-x="870" 
d="M855 700l-187 -700h-113l-120 577l-120 -577h-113l-187 700h102l139 -586l122 586h114l122 -586l139 586h102z" />
    <glyph glyph-name="X" unicode="X" horiz-adv-x="605" 
d="M480 0l-179 288l-179 -288h-112l238 368l-213 332h107l159 -254l159 254h107l-213 -332l238 -368h-112z" />
    <glyph glyph-name="Y" unicode="Y" horiz-adv-x="562" 
d="M548 700q-46 -222 -225 -402v-298h-90v300q-177 178 -223 400h96q31 -170 173 -318q142 151 173 318h96z" />
    <glyph glyph-name="Z" unicode="Z" horiz-adv-x="546" 
d="M152 85h353v-85h-460v90l347 525h-337v85h445v-90z" />
    <glyph glyph-name="bracketleft" unicode="[" horiz-adv-x="299" 
d="M294 725h-129v-810h129v-65h-209v940h209v-65z" />
    <glyph glyph-name="backslash" unicode="\" horiz-adv-x="433" 
d="M83 725l350 -750h-83l-350 750h83z" />
    <glyph glyph-name="bracketright" unicode="]" horiz-adv-x="299" 
d="M5 790h209v-940h-209v65h129v810h-129v65z" />
    <glyph glyph-name="asciicircum" unicode="^" horiz-adv-x="518" 
d="M203 700h112l178 -340h-93l-141 265l-141 -265h-93z" />
    <glyph glyph-name="underscore" unicode="_" horiz-adv-x="530" 
d="M15 0h500v-80h-500v80z" />
    <glyph glyph-name="grave" unicode="`" horiz-adv-x="248" 
d="M35 680h109l69 -130h-63z" />
    <glyph glyph-name="a" unicode="a" horiz-adv-x="537" 
d="M497 75h5v-75h-30q-61 0 -89 51q-56 -66 -141 -66q-60 0 -100.5 20.5t-80.5 62.5v166q29 39 161 64q83 13 112.5 25t29.5 37q0 26 -31 49t-82 23q-25 0 -47 -8t-36 -19t-24 -22.5t-14 -19.5l-4 -8l-76 44q30 52 81.5 84t112.5 32q93 0 148 -46t55 -127v-217
q0 -21 14.5 -35.5t35.5 -14.5zM242 68q60 0 91 32.5t31 87.5v70q-28 -21 -116 -36t-108 -34v-75q25 -45 102 -45z" />
    <glyph glyph-name="b" unicode="b" horiz-adv-x="566" 
d="M307 515q96 0 157.5 -76t61.5 -189q0 -112 -61.5 -188.5t-157.5 -76.5q-88 0 -143 73l-10 -58h-74v715h84v-269q55 69 143 69zM297 70q63 0 101 51.5t38 128.5t-38 128.5t-101 51.5t-98 -48t-35 -132q0 -180 133 -180z" />
    <glyph glyph-name="c" unicode="c" horiz-adv-x="505" 
d="M471 124q-2 -6 -7 -15t-22.5 -33t-39 -42.5t-57.5 -33.5t-76 -15q-95 0 -162 77.5t-67 187.5q0 111 67 188t162 77q40 0 76 -14.5t58 -35.5t38.5 -41.5t23.5 -35.5l7 -14l-76 -43l-5 10.5t-14 24t-24.5 30.5t-36 23.5t-47.5 10.5q-58 0 -98.5 -52t-40.5 -128
q0 -75 40.5 -127.5t98.5 -52.5q39 0 70.5 24.5t43.5 49.5l12 24z" />
    <glyph glyph-name="d" unicode="d" horiz-adv-x="561" 
d="M402 715h84v-715h-74l-10 58q-55 -73 -143 -73q-96 0 -157.5 76.5t-61.5 188.5q0 113 61.5 189t157.5 76q88 0 143 -69v269zM269 70q133 0 133 180q0 84 -35 132t-98 48t-101 -51.5t-38 -128.5t38 -128.5t101 -51.5z" />
    <glyph glyph-name="e" unicode="e" horiz-adv-x="512" 
d="M397 116l65 -59q-2 -3 -7 -8t-21 -17t-34 -21.5t-47 -17.5t-60 -8q-105 0 -179 77.5t-74 187.5t74 187.5t179 77.5q92 0 167 -69v-232h-330q11 -62 55.5 -104.5t107.5 -42.5q32 0 58 12.5t36 24.5zM293 433q-64 0 -108.5 -43t-54.5 -106h247v123q-26 26 -84 26z" />
    <glyph glyph-name="f" unicode="f" horiz-adv-x="288" 
d="M160 500h107v-80h-107v-420h-85v420h-55v80h55v60q0 63 30 106.5t94 43.5h48v-80h-25q-22 0 -35.5 -7.5t-19 -23t-6.5 -26t-1 -28.5v-45z" />
    <glyph glyph-name="g" unicode="g" horiz-adv-x="523" 
d="M478 500v-75h-53q19 -38 19 -86q0 -85 -54 -130t-141 -45q-37 0 -65 7q-24 -23 -7 -45.5t69 -22.5h26q76 0 124.5 -15t78.5 -53v-171q-67 -79 -221 -79q-90 0 -149.5 48.5t-59.5 118.5q0 35 18.5 63.5t36.5 39.5l18 11q-32 32 -28 68.5t35 62.5q-70 46 -70 142
q0 85 53.5 130.5t140.5 45.5q50 0 89 -15h140zM249 237q49 0 82.5 28t33.5 74q0 47 -33.5 75t-82.5 28t-82 -28t-33 -75q0 -46 33 -74t82 -28zM176 36q-2 -1 -5 -2t-11.5 -6.5t-15 -12.5t-11.5 -19t-5 -26q0 -18 5.5 -34.5t19.5 -34t45 -28.5t76 -11q73 0 119 37v105
q-48 25 -121 25q-38 0 -62 1.5t-29 3.5z" />
    <glyph glyph-name="h" unicode="h" horiz-adv-x="550" 
d="M314 515q106 0 166 -89v-426h-85v390q-30 40 -100 40q-66 0 -98 -48t-32 -107v-275h-85v715h85v-277q47 77 149 77z" />
    <glyph glyph-name="i" unicode="i" horiz-adv-x="255" 
d="M128 590q-28 0 -48 20t-20 48t20 47.5t48 19.5t47.5 -19.5t19.5 -47.5t-19.5 -48t-47.5 -20zM170 0v500h-85v-500h85z" />
    <glyph glyph-name="j" unicode="j" horiz-adv-x="242" 
d="M114 725q28 0 48 -19.5t20 -47.5t-20 -48t-48 -20t-47.5 19.5t-19.5 48.5q0 28 19.5 47.5t47.5 19.5zM72 -35v535h85v-550q0 -63 -30 -106.5t-94 -43.5h-48v80h25q22 0 35.5 7.5t19 23t6.5 26t1 28.5z" />
    <glyph glyph-name="k" unicode="k" horiz-adv-x="511" 
d="M412 0l-125 214q-55 -28 -123 -44v-170h-84v715h84v-464q114 27 188 115v134h83v-170q-33 -37 -75 -70l141 -260h-89z" />
    <glyph glyph-name="l" unicode="l" horiz-adv-x="315" 
d="M227 80h25v-80h-48q-64 0 -94 43.5t-30 106.5v565h85v-550q0 -18 1 -28.5t6.5 -26t19 -23t35.5 -7.5z" />
    <glyph glyph-name="m" unicode="m" horiz-adv-x="784" 
d="M564 515q100 0 149 -89v-426h-83v385q-26 45 -86 45q-54 0 -80 -36t-26 -94v-300h-85v391q-27 39 -85 39q-47 0 -76 -39t-29 -111v-280h-83v500h73l10 -53q46 68 135 68q78 0 126 -63q49 63 140 63z" />
    <glyph glyph-name="n" unicode="n" horiz-adv-x="551" 
d="M314 515q106 0 166 -89v-426h-85v390q-30 40 -100 40q-66 0 -98 -48t-32 -107v-275h-85v500h75l10 -62q47 77 149 77z" />
    <glyph glyph-name="o" unicode="o" 
d="M284 -15q-97 0 -170.5 78t-73.5 187t73.5 187t170.5 78t170.5 -78t73.5 -187t-73.5 -187t-170.5 -78zM284 70q62 0 108 53t46 127q0 75 -46 127.5t-108 52.5t-108 -52.5t-46 -127.5q0 -74 46 -127t108 -53z" />
    <glyph glyph-name="p" unicode="p" horiz-adv-x="566" 
d="M307 515q96 0 157.5 -76.5t61.5 -188.5q0 -113 -61.5 -189t-157.5 -76q-88 0 -143 69v-254h-84v700h74l10 -58q55 73 143 73zM297 70q63 0 101 51.5t38 128.5t-38 128.5t-101 51.5q-133 0 -133 -180q0 -84 35 -132t98 -48z" />
    <glyph glyph-name="q" unicode="q" horiz-adv-x="556" 
d="M412 500h74v-700h-84v254q-55 -69 -143 -69q-96 0 -157.5 76t-61.5 189q0 112 61.5 188.5t157.5 76.5q88 0 143 -73zM269 70q63 0 98 48t35 132q0 180 -133 180q-63 0 -101 -51.5t-38 -128.5t38 -128.5t101 -51.5z" />
    <glyph glyph-name="r" unicode="r" horiz-adv-x="362" 
d="M293 500h48v-81h-23q-73 0 -114.5 -42.5t-41.5 -116.5v-260h-82v500h72l10 -72q49 72 131 72z" />
    <glyph glyph-name="s" unicode="s" horiz-adv-x="434" 
d="M306 374q-3 6 -8.5 16t-28.5 26t-52 16q-36 0 -55 -16.5t-19 -46.5q0 -18 8.5 -30.5t18 -18.5t25.5 -12l92 -37q107 -44 107 -138q0 -71 -48 -109.5t-124 -38.5q-38 0 -71 12t-53 29t-35 34t-21 29l-7 12l73 36q1 -3 4 -8t13 -18t22.5 -22.5t33.5 -17.5t45 -8
q38 0 61.5 17t23.5 43t-14.5 44.5t-60.5 36.5l-76 30q-102 41 -102 134q0 57 42 102t114 45q34 0 63.5 -11t46.5 -27t29 -32t17 -27l4 -11z" />
    <glyph glyph-name="t" unicode="t" horiz-adv-x="315" 
d="M267 420h-107v-255q0 -18 1 -28.5t6.5 -26t19 -23t35.5 -7.5h25v-80h-48q-64 0 -94 43.5t-30 106.5v270h-55v80h14q27 0 37 12t10 39v89h79v-140h107v-80z" />
    <glyph glyph-name="u" unicode="u" 
d="M409 500h83v-500h-73l-10 56q-50 -71 -136 -71q-89 0 -143.5 54t-54.5 126v335h86v-305q0 -21 5 -40.5t16.5 -39.5t36.5 -32.5t61 -12.5q92 0 129 75v355z" />
    <glyph glyph-name="v" unicode="v" horiz-adv-x="515" 
d="M504 500l-197 -500h-100l-197 500h95l152 -404l152 404h95z" />
    <glyph glyph-name="w" unicode="w" horiz-adv-x="712" 
d="M697 500l-162 -500h-77l-102 356l-101 -356h-77l-163 500h89l115 -369l97 369h79l98 -369l115 369h89z" />
    <glyph glyph-name="x" unicode="x" horiz-adv-x="471" 
d="M362 0l-126 196l-125 -196h-101l173 257l-163 243h99l117 -182l116 182h99l-163 -243l173 -257h-99z" />
    <glyph glyph-name="y" unicode="y" horiz-adv-x="493" 
d="M483 500q-34 -110 -171 -520q-19 -58 -42 -96t-49.5 -55.5t-49.5 -23t-55 -5.5h-48v75h23q57 0 85.5 29t53.5 96l-220 500h96l162 -391l123 391h92z" />
    <glyph glyph-name="z" unicode="z" horiz-adv-x="501" 
d="M460 79v-79h-420v83l305 338h-285v79h390v-83l-305 -338h315z" />
    <glyph glyph-name="braceleft" unicode="{" horiz-adv-x="304" 
d="M265 730q-12 0 -22 -2t-17.5 -4t-13 -7.5t-9.5 -9t-6.5 -11t-4 -11t-2 -13.5t-0.5 -12.5v-13v-11.5v-205q0 -85 -66 -110q66 -25 66 -110v-205v-11.5v-13t0.5 -12.5t2 -13.5t4 -11t6.5 -11t9.5 -9t13 -7.5t17.5 -4t22 -2h34v-60h-72q-53 0 -81.5 38t-28.5 102v205
q0 18 -1 27.5t-7 28t-23 29.5t-44 15v50q27 4 44 15t23 29.5t7 28t1 27.5v205q0 64 28.5 102t81.5 38h72v-60h-34z" />
    <glyph glyph-name="bar" unicode="|" horiz-adv-x="255" 
d="M90 800h75v-960h-75v960z" />
    <glyph glyph-name="braceright" unicode="}" horiz-adv-x="304" 
d="M187 445q0 -18 1 -27.5t7 -28t23 -29.5t44 -15v-50q-27 -4 -44 -15t-23 -29.5t-7 -28t-1 -27.5v-205q0 -64 -28.5 -102t-81.5 -38h-72v60h34q12 0 22 2t17.5 4t13 7.5t9.5 9t6.5 11t4 11t2 13.5t0.5 12.5v13v11.5v205q0 85 66 110q-66 25 -66 110v205v11.5v13t-0.5 12.5
t-2 13.5t-4 11t-6.5 11t-9.5 9t-13 7.5t-17.5 4t-22 2h-34v60h72q53 0 81.5 -38t28.5 -102v-205z" />
    <glyph glyph-name="asciitilde" unicode="~" horiz-adv-x="581" 
d="M35 312q2 3 6.5 9t20 20.5t33.5 25.5t46.5 20t59.5 9q41 0 98 -28.5t91 -28.5q27 0 53 11.5t39 23.5l13 12l51 -38q-2 -3 -6.5 -9t-20 -20.5t-33.5 -25.5t-46.5 -20t-59.5 -9q-41 0 -98 28.5t-91 28.5q-27 0 -53 -11.5t-39 -23.5l-13 -11z" />
    <glyph glyph-name="uni00A0" unicode="&#xa0;" horiz-adv-x="250" 
 />
    <glyph glyph-name="exclamdown" unicode="&#xa1;" horiz-adv-x="285" 
d="M142 510q28 0 48 -20t20 -48t-20 -47.5t-48 -19.5t-47.5 19.5t-19.5 47.5q0 29 19.5 48.5t47.5 19.5zM174 303h-63l-18 -503h99z" />
    <glyph glyph-name="cent" unicode="&#xa2;" horiz-adv-x="525" 
d="M302 149q33 8 60 33t38 46l10 21l64 -38q-2 -5 -6.5 -13t-20 -29t-34 -38t-48.5 -33.5t-63 -20.5v-77h-70v80q-79 17 -130.5 90t-51.5 165q0 93 51.5 165.5t130.5 89.5v80h70l-1 -77q33 -4 63.5 -20t49.5 -35t33.5 -37.5t20.5 -30.5l7 -13l-65 -37q-1 3 -4 9t-13 21.5
t-21.5 28t-30.5 25t-40 17.5zM128 335q0 -63 28.5 -113.5t75.5 -67.5v362q-47 -17 -75.5 -67.5t-28.5 -113.5z" />
    <glyph glyph-name="sterling" unicode="&#xa3;" horiz-adv-x="567" 
d="M472 165h70v-43q0 -58 -40.5 -90t-94.5 -32h-342v80l13.5 10.5t30.5 27.5t39 43t30.5 53.5t13.5 60.5q0 10 -2 26h-125v65h96q-1 2 -10.5 16t-11.5 17.5l-9.5 16.5t-10 20.5l-6.5 20t-5.5 25t-1.5 26.5q0 65 59.5 121t157.5 56q29 0 55 -6.5t45 -17.5t35 -24t26 -25.5
t17 -23.5t10 -18l3 -6l-68 -37q-1 3 -3.5 8.5t-12.5 19.5t-22.5 24.5t-35 19.5t-49.5 9q-61 0 -97.5 -30t-36.5 -80q0 -24 8.5 -44.5t27 -47.5t25.5 -40h197v-65h-177q2 -16 2 -26q0 -33 -11.5 -66t-28 -56t-33.5 -41.5t-29 -27.5l-11 -9h234q27 0 43.5 5.5t24 16t9.5 21
t2 26.5v21z" />
    <glyph glyph-name="currency" unicode="&#xa4;" horiz-adv-x="586" 
d="M530 250q0 -76 -46 -142l57 -57l-49 -50l-55 57q-66 -53 -144 -53t-144 53l-55 -57l-49 50l57 57q-46 66 -46 142q0 79 46 142l-57 57l49 50l55 -57q66 53 144 53t144 -53l55 57l49 -50l-57 -57q46 -63 46 -142zM293 78q64 0 111 50.5t47 121.5q0 73 -46.5 122.5
t-111.5 49.5t-111.5 -49.5t-46.5 -122.5q0 -71 47 -121.5t111 -50.5z" />
    <glyph glyph-name="yen" unicode="&#xa5;" 
d="M543 670q-36 -170 -158 -319h115v-65h-182v-95h182v-65h-182v-126h-70v126h-182v65h182v95h-182v65h117q-122 148 -158 319h84q32 -176 175 -324q143 150 175 324h84z" />
    <glyph glyph-name="brokenbar" unicode="&#xa6;" horiz-adv-x="255" 
d="M90 800h75v-400h-75v400zM90 240h75v-400h-75v400z" />
    <glyph glyph-name="section" unicode="&#xa7;" horiz-adv-x="611" 
d="M432 125q46 -29 70 -65t24 -89q0 -81 -63 -133.5t-158 -52.5q-149 0 -220 145l73 40q2 -4 6 -10.5t17.5 -24t29.5 -30.5t41.5 -23.5t53.5 -10.5q62 0 96 27t34 78q0 39 -21 61t-64 46l-107 60q-114 63 -114 147q0 47 28 76t86 46l-1 1q-49 28 -81 68t-32 87
q0 60 44 103.5t137 43.5q39 0 72.5 -12.5t54 -30.5t36 -36.5t21.5 -31.5l6 -12l-72 -38q-2 3 -5 8.5t-13.5 19.5t-23 24.5t-31.5 19.5t-39 9q-39 0 -67 -18.5t-28 -55.5q0 -25 20 -47.5t85 -58.5l91 -51q45 -25 76 -67t31 -88q0 -44 -25 -77t-68 -47zM222 291q0 -31 21 -51
t82 -55l42 -23q69 21 69 85q0 27 -13.5 48t-29 32t-43.5 27l-39 22q-39 -9 -64 -32t-25 -53z" />
    <glyph glyph-name="dieresis" unicode="&#xa8;" horiz-adv-x="364" 
d="M92 572q-24 0 -40.5 16.5t-16.5 41.5q0 23 16.5 40t40.5 17t41 -17t17 -40q0 -25 -17 -41.5t-41 -16.5zM271 572q-24 0 -40.5 16.5t-16.5 41.5q0 23 16.5 40t40.5 17t41 -17t17 -40q0 -25 -17 -41.5t-41 -16.5z" />
    <glyph glyph-name="copyright" unicode="&#xa9;" horiz-adv-x="820" 
d="M410 -15q-155 0 -260 105t-105 260t105 260t260 105t260 -105t105 -260t-105 -260t-260 -105zM410 57q120 0 204 86t84 207t-84 207t-204 86t-204 -86t-84 -207t84 -207t204 -86zM576 249q-2 -5 -5.5 -12.5t-18 -27t-31.5 -34.5t-47 -27.5t-64 -12.5q-78 0 -132.5 62.5
t-54.5 152.5t54 152.5t133 62.5q34 0 63.5 -11.5t47 -28.5t30.5 -34t19 -29l5 -11l-68 -34q-1 3 -3 8.5t-10.5 18.5t-18.5 23t-27.5 18.5t-37.5 8.5q-48 0 -79 -41.5t-31 -102.5q0 -59 31.5 -100.5t78.5 -41.5q32 0 57 19.5t34 38.5l9 19z" />
    <glyph glyph-name="guillemotleft" unicode="&#xab;" horiz-adv-x="476" 
d="M30 309l181 216l59 -58l-141 -158l141 -158l-59 -58zM216 309l181 216l59 -58l-141 -158l141 -158l-59 -58z" />
    <glyph glyph-name="logicalnot" unicode="&#xac;" horiz-adv-x="590" 
d="M525 470v-305h-78v232h-402v73h480z" />
    <glyph glyph-name="registered" unicode="&#xae;" horiz-adv-x="820" 
d="M410 -15q-155 0 -260 105t-105 260t105 260t260 105t260 -105t105 -260t-105 -260t-260 -105zM410 57q120 0 204 86t84 207t-84 207t-204 86t-204 -86t-84 -207t84 -207t204 -86zM421 291h-64v-137h-69v401h128q60 0 101.5 -42t41.5 -101q0 -32 -19 -62.5t-51 -46.5
l77 -149h-77zM361 359h102q27 22 27 57q0 33 -20 52.5t-50 19.5h-59v-129z" />
    <glyph glyph-name="macron" unicode="&#xaf;" horiz-adv-x="355" 
d="M35 700h285v-70h-285v70z" />
    <glyph glyph-name="degree" unicode="&#xb0;" horiz-adv-x="360" 
d="M180 355q-66 0 -110.5 44t-44.5 111t44.5 111t110.5 44t110.5 -44t44.5 -111t-44.5 -111t-110.5 -44zM180 432q34 0 55.5 22t21.5 56t-21.5 55.5t-55.5 21.5t-56 -21.5t-22 -55.5t22 -56t56 -22z" />
    <glyph glyph-name="plusminus" unicode="&#xb1;" horiz-adv-x="630" 
d="M356 415h209v-75h-209v-152h-80v152h-211v75h211v152h80v-152zM75 45v75h480v-75h-480z" />
    <glyph glyph-name="acute" unicode="&#xb4;" horiz-adv-x="248" 
d="M213 680l-115 -130h-63l69 130h109z" />
    <glyph glyph-name="paragraph" unicode="&#xb6;" horiz-adv-x="579" 
d="M554 700v-72h-80v-828h-73v828h-84v-828h-75v523q-84 0 -145.5 50.5t-61.5 138.5q0 87 61.5 137.5t145.5 50.5h312z" />
    <glyph glyph-name="periodcentered" unicode="&#xb7;" horiz-adv-x="275" 
d="M137 277q-28 0 -47.5 19.5t-19.5 48.5q0 28 19.5 47.5t47.5 19.5t48 -19.5t20 -47.5t-20 -48t-48 -20z" />
    <glyph glyph-name="cedilla" unicode="&#xb8;" horiz-adv-x="298" 
d="M120 29h82l-60 -70q8 10 27.5 8t40.5 -9t37 -28.5t16 -50.5q0 -40 -33.5 -67t-80.5 -27q-37 0 -65.5 17.5t-38.5 35.5l-10 17l50 29q18 -32 46.5 -40t49 4t20.5 30q0 28 -31.5 36t-55.5 -15l-54 36z" />
    <glyph glyph-name="ordmasculine" unicode="&#xba;" horiz-adv-x="540" 
d="M270 175q-89 0 -149.5 59.5t-60.5 150.5t60.5 150.5t149.5 59.5t149.5 -59.5t60.5 -150.5t-60.5 -150.5t-149.5 -59.5zM270 255q55 0 90 37.5t35 93.5q0 55 -35 92t-90 37q-54 0 -89.5 -37t-35.5 -92q0 -56 35.5 -93.5t89.5 -37.5zM70 80h400v-80h-400v80z" />
    <glyph glyph-name="guillemotright" unicode="&#xbb;" horiz-adv-x="476" 
d="M260 309l-181 -216l-59 58l141 158l-141 158l59 58zM446 309l-181 -216l-59 58l141 158l-141 158l59 58z" />
    <glyph glyph-name="questiondown" unicode="&#xbf;" horiz-adv-x="451" 
d="M227 515q28 0 47.5 -19.5t19.5 -48.5q0 -28 -19.5 -47.5t-47.5 -19.5t-48 19.5t-20 47.5t20 48t48 20zM210 -210q-79 0 -134.5 51t-55.5 124q0 42 13.5 73.5t35 51t44 34.5t44 33.5t30.5 39.5v112h78v-157q-12 -26 -33 -46t-41 -32t-39 -25t-30.5 -32.5t-11.5 -45.5
q0 -42 25 -69t74 -27q34 0 62.5 24.5t40.5 48.5l12 25l77 -42q-31 -65 -80 -103t-111 -38z" />
    <glyph glyph-name="Agrave" unicode="&#xc0;" horiz-adv-x="632" 
d="M366 770h-79l-125 110h125zM524 0l-68 199h-280l-68 -199h-98l246 700h120l246 -700h-98zM205 284h222l-111 325z" />
    <glyph glyph-name="Aacute" unicode="&#xc1;" horiz-adv-x="632" 
d="M470 880l-125 -110h-79l79 110h125zM524 0l-68 199h-280l-68 -199h-98l246 700h120l246 -700h-98zM205 284h222l-111 325z" />
    <glyph glyph-name="Acircumflex" unicode="&#xc2;" horiz-adv-x="632" 
d="M317 826l-69 -76h-95l123 130h81l124 -130h-95zM524 0l-68 199h-280l-68 -199h-98l246 700h120l246 -700h-98zM205 284h222l-111 325z" />
    <glyph glyph-name="Atilde" unicode="&#xc3;" horiz-adv-x="632" 
d="M252 812q-20 0 -34 -11t-18 -22l-4 -11h-63q0 5 1.5 13t9 28t19 35.5t34.5 28t53 12.5q38 0 74.5 -22t52.5 -22q20 0 34 11t18 22l4 11h63q0 -5 -1.5 -13t-9 -28t-19 -35.5t-34.5 -28t-53 -12.5q-38 0 -74.5 22t-52.5 22zM524 0l-68 199h-280l-68 -199h-98l246 700h120
l246 -700h-98zM205 284h222l-111 325z" />
    <glyph glyph-name="Adieresis" unicode="&#xc4;" horiz-adv-x="632" 
d="M226 767q-24 0 -40.5 16.5t-16.5 41.5q0 23 16.5 40t40.5 17t41 -17t17 -40q0 -25 -17 -41.5t-41 -16.5zM405 767q-24 0 -40.5 16.5t-16.5 41.5q0 23 16.5 40t40.5 17t41 -17t17 -40q0 -25 -17 -41.5t-41 -16.5zM524 0l-68 199h-280l-68 -199h-98l246 700h120l246 -700
h-98zM205 284h222l-111 325z" />
    <glyph glyph-name="Aring" unicode="&#xc5;" horiz-adv-x="632" 
d="M524 0l-68 199h-280l-68 -199h-98l231 656q-41 36 -41 92q0 52 34.5 86t85.5 34t85.5 -34t34.5 -86q0 -61 -47 -97l229 -651h-98zM320 795q-21 0 -34.5 -13t-13.5 -34t13.5 -34.5t34.5 -13.5t34 13.5t13 34.5t-13 34t-34 13zM205 284h222l-111 325z" />
    <glyph glyph-name="AE" unicode="&#xc6;" horiz-adv-x="997" 
d="M587 85h350v-85h-440v199h-265l-127 -199h-100l436 700h486v-85h-340v-217h290v-85h-290v-228zM286 284h211v333z" />
    <glyph glyph-name="Ccedilla" unicode="&#xc7;" horiz-adv-x="685" 
d="M645 178q-3 -7 -8.5 -18.5t-27 -42t-47 -55t-69 -47t-92.5 -28.5l-34 -39q8 8 27 7.5t39.5 -8t36 -28.5t15.5 -50q0 -40 -33.5 -67t-80.5 -27q-37 0 -65.5 17.5t-38.5 35.5l-10 17l53 30q18 -32 44.5 -40t45 3.5t18.5 29.5q0 28 -29 34.5t-53 -16.5l-54 39l40 63
q-118 17 -197.5 120t-79.5 242q0 153 93.5 259t225.5 106q41 0 78.5 -10.5t64.5 -27.5t50.5 -38t38.5 -41.5t26 -37.5t16 -28l4 -10l-80 -43q-2 6 -7 16t-22.5 35t-38.5 44t-56 35t-74 16q-102 0 -163 -81.5t-61 -193.5t61 -193.5t163 -81.5q39 0 74 15t57.5 36.5t39 43.5
t23.5 37l7 15z" />
    <glyph glyph-name="Egrave" unicode="&#xc8;" horiz-adv-x="590" 
d="M368 770h-79l-125 110h125zM180 85h350v-85h-440v700h430v-85h-340v-217h290v-85h-290v-228z" />
    <glyph glyph-name="Eacute" unicode="&#xc9;" horiz-adv-x="590" 
d="M460 880l-125 -110h-79l79 110h125zM180 85h350v-85h-440v700h430v-85h-340v-217h290v-85h-290v-228z" />
    <glyph glyph-name="Ecircumflex" unicode="&#xca;" horiz-adv-x="590" 
d="M305 826l-69 -76h-95l123 130h81l124 -130h-95zM180 85h350v-85h-440v700h430v-85h-340v-217h290v-85h-290v-228z" />
    <glyph glyph-name="Edieresis" unicode="&#xcb;" horiz-adv-x="590" 
d="M215 767q-24 0 -40.5 16.5t-16.5 41.5q0 23 16.5 40t40.5 17t41 -17t17 -40q0 -25 -17 -41.5t-41 -16.5zM394 767q-24 0 -40.5 16.5t-16.5 41.5q0 23 16.5 40t40.5 17t41 -17t17 -40q0 -25 -17 -41.5t-41 -16.5zM180 85h350v-85h-440v700h430v-85h-340v-217h290v-85h-290
v-228z" />
    <glyph glyph-name="Igrave" unicode="&#xcc;" horiz-adv-x="344" 
d="M45 880h125l79 -110h-79zM163 700h91v-700h-91v700z" />
    <glyph glyph-name="Iacute" unicode="&#xcd;" horiz-adv-x="344" 
d="M299 880l-125 -110h-79l79 110h125zM90 700h91v-700h-91v700z" />
    <glyph glyph-name="Icircumflex" unicode="&#xce;" horiz-adv-x="258" 
d="M174 880l124 -130h-95l-69 76l-69 -76h-95l123 130h81zM89 700h91v-700h-91v700z" />
    <glyph glyph-name="Idieresis" unicode="&#xcf;" horiz-adv-x="295" 
d="M67 767q-24 0 -40.5 16.5t-16.5 41.5q0 23 16.5 40t40.5 17t41 -17t17 -40q0 -25 -17 -41.5t-41 -16.5zM227 767q-24 0 -40.5 16.5t-16.5 41.5q0 23 16.5 40t40.5 17t41 -17t17 -40q0 -25 -17 -41.5t-41 -16.5zM102 700h91v-700h-91v700z" />
    <glyph glyph-name="Eth" unicode="&#xd0;" horiz-adv-x="684" 
d="M299 700q143 0 241.5 -104t98.5 -263q0 -113 -53 -201.5t-141 -131.5h-336v320h-89v85h89v295h190zM411 85q51 27 92 88.5t41 159.5q0 115 -73.5 198.5t-171.5 83.5h-100v-210h119v-85h-119v-235h212z" />
    <glyph glyph-name="Ntilde" unicode="&#xd1;" horiz-adv-x="700" 
d="M284 812q-20 0 -34 -11t-18 -22l-4 -11h-63q0 5 1.5 13t9 28t19 35.5t34.5 28t53 12.5q38 0 74.5 -22t52.5 -22q20 0 34 11t18 22l4 11h63q0 -5 -1.5 -13t-9 -28t-19 -35.5t-34.5 -28t-53 -12.5q-38 0 -74.5 22t-52.5 22zM520 700h90v-700h-90l-340 542v-542h-90v700h90
l340 -542v542z" />
    <glyph glyph-name="Ograve" unicode="&#xd2;" horiz-adv-x="730" 
d="M213 880h125l79 -110h-79zM365 -15q-134 0 -227 106.5t-93 258.5q0 153 93 259t227 106q135 0 227.5 -106t92.5 -259t-92.5 -259t-227.5 -106zM365 75q98 0 161.5 83.5t63.5 191.5t-63.5 191.5t-161.5 83.5t-161.5 -83.5t-63.5 -191.5t63.5 -191.5t161.5 -83.5z" />
    <glyph glyph-name="Oacute" unicode="&#xd3;" horiz-adv-x="730" 
d="M517 880l-125 -110h-79l79 110h125zM365 -15q-134 0 -227 106.5t-93 258.5q0 153 93 259t227 106q135 0 227.5 -106t92.5 -259t-92.5 -259t-227.5 -106zM365 75q98 0 161.5 83.5t63.5 191.5t-63.5 191.5t-161.5 83.5t-161.5 -83.5t-63.5 -191.5t63.5 -191.5t161.5 -83.5z
" />
    <glyph glyph-name="Ocircumflex" unicode="&#xd4;" horiz-adv-x="730" 
d="M405 880l124 -130h-95l-69 76l-69 -76h-95l123 130h81zM365 -15q-134 0 -227 106.5t-93 258.5q0 153 93 259t227 106q135 0 227.5 -106t92.5 -259t-92.5 -259t-227.5 -106zM365 75q98 0 161.5 83.5t63.5 191.5t-63.5 191.5t-161.5 83.5t-161.5 -83.5t-63.5 -191.5
t63.5 -191.5t161.5 -83.5z" />
    <glyph glyph-name="Otilde" unicode="&#xd5;" horiz-adv-x="730" 
d="M174 768q0 5 1.5 13t9 28t19 35.5t34.5 28t53 12.5q38 0 74.5 -22t52.5 -22q20 0 34 11t18 22l4 11h63q0 -5 -1.5 -13t-9 -28t-19 -35.5t-34.5 -28t-53 -12.5q-38 0 -74.5 22t-52.5 22q-20 0 -34 -11t-18 -22l-4 -11h-63zM365 -15q-134 0 -227 106.5t-93 258.5
q0 153 93 259t227 106q135 0 227.5 -106t92.5 -259t-92.5 -259t-227.5 -106zM365 75q98 0 161.5 83.5t63.5 191.5t-63.5 191.5t-161.5 83.5t-161.5 -83.5t-63.5 -191.5t63.5 -191.5t161.5 -83.5z" />
    <glyph glyph-name="Odieresis" unicode="&#xd6;" horiz-adv-x="730" 
d="M275 767q-24 0 -40.5 16.5t-16.5 41.5q0 23 16.5 40t40.5 17t41 -17t17 -40q0 -25 -17 -41.5t-41 -16.5zM454 767q-24 0 -40.5 16.5t-16.5 41.5q0 23 16.5 40t40.5 17t41 -17t17 -40q0 -25 -17 -41.5t-41 -16.5zM365 -15q-134 0 -227 106.5t-93 258.5q0 153 93 259
t227 106q135 0 227.5 -106t92.5 -259t-92.5 -259t-227.5 -106zM365 75q98 0 161.5 83.5t63.5 191.5t-63.5 191.5t-161.5 83.5t-161.5 -83.5t-63.5 -191.5t63.5 -191.5t161.5 -83.5z" />
    <glyph glyph-name="multiply" unicode="&#xd7;" horiz-adv-x="557" 
d="M517 512l-186 -184l186 -188l-50 -50l-188 186l-189 -186l-50 50l186 188l-186 184l57 52l182 -183l181 183z" />
    <glyph glyph-name="Oslash" unicode="&#xd8;" horiz-adv-x="751" 
d="M706 675l-81 -93q71 -99 71 -232q0 -153 -92.5 -259t-227.5 -106q-113 0 -201 80l-69 -80l-61 53l77 89q-66 96 -66 223q0 153 93 259t227 106q108 0 193 -72l73 85zM151 350q0 -78 36 -148l321 371q-59 52 -132 52q-98 0 -161.5 -83.5t-63.5 -191.5zM601 350
q0 87 -41 157l-324 -373q61 -59 140 -59q98 0 161.5 83.5t63.5 191.5z" />
    <glyph glyph-name="Ugrave" unicode="&#xd9;" horiz-adv-x="680" 
d="M198 880h125l79 -110h-79zM600 700v-415q0 -145 -69.5 -222.5t-190.5 -77.5t-190.5 77.5t-69.5 222.5v415h90v-415q0 -104 50 -157t120 -53t120 53t50 157v415h90z" />
    <glyph glyph-name="Uacute" unicode="&#xda;" horiz-adv-x="680" 
d="M482 880l-125 -110h-79l79 110h125zM600 700v-415q0 -145 -69.5 -222.5t-190.5 -77.5t-190.5 77.5t-69.5 222.5v415h90v-415q0 -104 50 -157t120 -53t120 53t50 157v415h90z" />
    <glyph glyph-name="Ucircumflex" unicode="&#xdb;" horiz-adv-x="680" 
d="M380 880l124 -130h-95l-69 76l-69 -76h-95l123 130h81zM600 700v-415q0 -145 -69.5 -222.5t-190.5 -77.5t-190.5 77.5t-69.5 222.5v415h90v-415q0 -104 50 -157t120 -53t120 53t50 157v415h90z" />
    <glyph glyph-name="Udieresis" unicode="&#xdc;" horiz-adv-x="680" 
d="M250 767q-24 0 -40.5 16.5t-16.5 41.5q0 23 16.5 40t40.5 17t41 -17t17 -40q0 -25 -17 -41.5t-41 -16.5zM429 767q-24 0 -40.5 16.5t-16.5 41.5q0 23 16.5 40t40.5 17t41 -17t17 -40q0 -25 -17 -41.5t-41 -16.5zM600 700v-415q0 -145 -69.5 -222.5t-190.5 -77.5
t-190.5 77.5t-69.5 222.5v415h90v-415q0 -104 50 -157t120 -53t120 53t50 157v415h90z" />
    <glyph glyph-name="Yacute" unicode="&#xdd;" horiz-adv-x="558" 
d="M426 880l-125 -110h-79l79 110h125zM548 700q-46 -222 -225 -402v-298h-90v300q-177 178 -223 400h96q31 -170 173 -318q142 151 173 318h96z" />
    <glyph glyph-name="Thorn" unicode="&#xde;" horiz-adv-x="585" 
d="M310 595q104 0 177 -73t73 -177q0 -76 -42 -138.5t-110 -91.5h-228v-115h-90v700h90v-105h130zM377 200q88 46 88 146q0 65 -40 114.5t-105 49.5h-140v-310h197z" />
    <glyph glyph-name="germandbls" unicode="&#xdf;" horiz-adv-x="524" 
d="M330 351q164 -32 164 -173q0 -91 -59.5 -134.5t-162.5 -43.5h-44v75h44q139 0 139 105q0 28 -11 48t-26.5 30.5t-40.5 16.5t-45.5 7.5t-49.5 1.5v89l120 127h-195v-500h-83v715h83v-135h295v-80z" />
    <glyph glyph-name="agrave" unicode="&#xe0;" horiz-adv-x="537" 
d="M310 550h-63l-115 130h109zM497 75h5v-75h-30q-61 0 -89 51q-56 -66 -141 -66q-60 0 -100.5 20.5t-80.5 62.5v166q29 39 161 64q83 13 112.5 25t29.5 37q0 26 -31 49t-82 23q-25 0 -47 -8t-36 -19t-24 -22.5t-14 -19.5l-4 -8l-76 44q30 52 81.5 84t112.5 32q93 0 148 -46
t55 -127v-217q0 -21 14.5 -35.5t35.5 -14.5zM242 68q60 0 91 32.5t31 87.5v70q-28 -21 -116 -36t-108 -34v-75q25 -45 102 -45z" />
    <glyph glyph-name="aacute" unicode="&#xe1;" horiz-adv-x="537" 
d="M390 680l-115 -130h-63l69 130h109zM497 75h5v-75h-30q-61 0 -89 51q-56 -66 -141 -66q-60 0 -100.5 20.5t-80.5 62.5v166q29 39 161 64q83 13 112.5 25t29.5 37q0 26 -31 49t-82 23q-25 0 -47 -8t-36 -19t-24 -22.5t-14 -19.5l-4 -8l-76 44q30 52 81.5 84t112.5 32
q93 0 148 -46t55 -127v-217q0 -21 14.5 -35.5t35.5 -14.5zM242 68q60 0 91 32.5t31 87.5v70q-28 -21 -116 -36t-108 -34v-75q25 -45 102 -45z" />
    <glyph glyph-name="acircumflex" unicode="&#xe2;" horiz-adv-x="537" 
d="M244 631l-69 -81h-90l113 130h92l113 -130h-90zM497 75h5v-75h-30q-61 0 -89 51q-56 -66 -141 -66q-60 0 -100.5 20.5t-80.5 62.5v166q29 39 161 64q83 13 112.5 25t29.5 37q0 26 -31 49t-82 23q-25 0 -47 -8t-36 -19t-24 -22.5t-14 -19.5l-4 -8l-76 44q30 52 81.5 84
t112.5 32q93 0 148 -46t55 -127v-217q0 -21 14.5 -35.5t35.5 -14.5zM242 68q60 0 91 32.5t31 87.5v70q-28 -21 -116 -36t-108 -34v-75q25 -45 102 -45z" />
    <glyph glyph-name="atilde" unicode="&#xe3;" horiz-adv-x="537" 
d="M185 615q-20 0 -31.5 -13.5t-13.5 -27.5l-2 -14h-65q0 5 0.5 13t6.5 28.5t16.5 36.5t33 29t53.5 13q30 0 54 -14t42.5 -27.5t34.5 -13.5q20 0 32 13.5t14 27.5l1 14h65q0 -5 -0.5 -13t-6.5 -28.5t-16.5 -36.5t-33 -29t-53.5 -13q-30 0 -54 14t-42.5 27.5t-34.5 13.5z
M497 75h5v-75h-30q-61 0 -89 51q-56 -66 -141 -66q-60 0 -100.5 20.5t-80.5 62.5v166q29 39 161 64q83 13 112.5 25t29.5 37q0 26 -31 49t-82 23q-25 0 -47 -8t-36 -19t-24 -22.5t-14 -19.5l-4 -8l-76 44q30 52 81.5 84t112.5 32q93 0 148 -46t55 -127v-217
q0 -21 14.5 -35.5t35.5 -14.5zM242 68q60 0 91 32.5t31 87.5v70q-28 -21 -116 -36t-108 -34v-75q25 -45 102 -45z" />
    <glyph glyph-name="adieresis" unicode="&#xe4;" horiz-adv-x="537" 
d="M159 572q-24 0 -40.5 16.5t-16.5 41.5q0 23 16.5 40t40.5 17t41 -17t17 -40q0 -25 -17 -41.5t-41 -16.5zM338 572q-24 0 -40.5 16.5t-16.5 41.5q0 23 16.5 40t40.5 17t41 -17t17 -40q0 -25 -17 -41.5t-41 -16.5zM497 75h5v-75h-30q-61 0 -89 51q-56 -66 -141 -66
q-60 0 -100.5 20.5t-80.5 62.5v166q29 39 161 64q83 13 112.5 25t29.5 37q0 26 -31 49t-82 23q-25 0 -47 -8t-36 -19t-24 -22.5t-14 -19.5l-4 -8l-76 44q30 52 81.5 84t112.5 32q93 0 148 -46t55 -127v-217q0 -21 14.5 -35.5t35.5 -14.5zM242 68q60 0 91 32.5t31 87.5v70
q-28 -21 -116 -36t-108 -34v-75q25 -45 102 -45z" />
    <glyph glyph-name="aring" unicode="&#xe5;" horiz-adv-x="537" 
d="M261 551q-45 0 -75 30t-30 75t30 75t75 30t75 -30t30 -75t-30 -75t-75 -30zM261 700q-20 0 -32.5 -12.5t-12.5 -31.5q0 -20 13 -32.5t32 -12.5t31.5 12.5t12.5 32.5t-12.5 32t-31.5 12zM497 75h5v-75h-30q-61 0 -89 51q-56 -66 -141 -66q-60 0 -100.5 20.5t-80.5 62.5
v166q29 39 161 64q83 13 112.5 25t29.5 37q0 26 -31 49t-82 23q-25 0 -47 -8t-36 -19t-24 -22.5t-14 -19.5l-4 -8l-76 44q30 52 81.5 84t112.5 32q93 0 148 -46t55 -127v-217q0 -21 14.5 -35.5t35.5 -14.5zM242 68q60 0 91 32.5t31 87.5v70q-28 -21 -116 -36t-108 -34v-75
q25 -45 102 -45z" />
    <glyph glyph-name="ae" unicode="&#xe6;" horiz-adv-x="836" 
d="M721 116l65 -59q-2 -3 -7 -8t-21 -17t-34 -21.5t-47 -17.5t-60 -8q-60 0 -112 27t-87 74q-22 -44 -71 -72.5t-105 -28.5q-60 0 -100.5 20.5t-80.5 62.5v166q29 39 161 64q83 13 112.5 25t29.5 37q0 26 -31 49t-82 23q-25 0 -47 -8t-36 -19t-24 -22.5t-14 -19.5l-4 -8
l-76 44q30 52 81.5 84t112.5 32q135 0 183 -89q76 89 190 89q92 0 167 -69v-232h-330q11 -62 55.5 -104.5t107.5 -42.5q32 0 58 12.5t36 24.5zM617 433q-64 0 -108.5 -43t-54.5 -106h247v123q-26 26 -84 26zM242 68q60 0 91 32.5t31 87.5v70q-28 -21 -116 -36t-108 -34v-75
q25 -45 102 -45z" />
    <glyph glyph-name="ccedilla" unicode="&#xe7;" horiz-adv-x="502" 
d="M269 70q39 0 70.5 24.5t43.5 49.5l12 24l76 -44q-2 -5 -6 -13.5t-19.5 -30t-34 -39t-49.5 -34t-66 -20.5l-24 -28q8 10 27.5 8t40.5 -9t37 -28.5t16 -50.5q0 -40 -33.5 -67t-80.5 -27q-37 0 -65.5 17.5t-38.5 35.5l-10 17l50 29q18 -32 46.5 -40t49 4t20.5 30
q0 28 -31.5 36t-55.5 -15l-54 36l35 55q-80 17 -132.5 90t-52.5 170q0 111 67 188t162 77q40 0 76 -14.5t58 -35.5t38.5 -41.5t23.5 -35.5l7 -14l-76 -43l-5 10.5t-14 24t-24.5 30.5t-36 23.5t-47.5 10.5q-58 0 -98.5 -52t-40.5 -128q0 -75 40.5 -127.5t98.5 -52.5z" />
    <glyph glyph-name="egrave" unicode="&#xe8;" horiz-adv-x="512" 
d="M333 550h-63l-115 130h109zM397 116l65 -59q-2 -3 -7 -8t-21 -17t-34 -21.5t-47 -17.5t-60 -8q-105 0 -179 77.5t-74 187.5t74 187.5t179 77.5q92 0 167 -69v-232h-330q11 -62 55.5 -104.5t107.5 -42.5q32 0 58 12.5t36 24.5zM293 433q-64 0 -108.5 -43t-54.5 -106h247
v123q-26 26 -84 26z" />
    <glyph glyph-name="eacute" unicode="&#xe9;" horiz-adv-x="512" 
d="M408 680l-115 -130h-63l69 130h109zM397 116l65 -59q-2 -3 -7 -8t-21 -17t-34 -21.5t-47 -17.5t-60 -8q-105 0 -179 77.5t-74 187.5t74 187.5t179 77.5q92 0 167 -69v-232h-330q11 -62 55.5 -104.5t107.5 -42.5q32 0 58 12.5t36 24.5zM293 433q-64 0 -108.5 -43
t-54.5 -106h247v123q-26 26 -84 26z" />
    <glyph glyph-name="ecircumflex" unicode="&#xea;" horiz-adv-x="512" 
d="M283 631l-69 -81h-90l113 130h92l113 -130h-90zM397 116l65 -59q-2 -3 -7 -8t-21 -17t-34 -21.5t-47 -17.5t-60 -8q-105 0 -179 77.5t-74 187.5t74 187.5t179 77.5q92 0 167 -69v-232h-330q11 -62 55.5 -104.5t107.5 -42.5q32 0 58 12.5t36 24.5zM293 433
q-64 0 -108.5 -43t-54.5 -106h247v123q-26 26 -84 26z" />
    <glyph glyph-name="edieresis" unicode="&#xeb;" horiz-adv-x="512" 
d="M188 572q-24 0 -40.5 16.5t-16.5 41.5q0 23 16.5 40t40.5 17t41 -17t17 -40q0 -25 -17 -41.5t-41 -16.5zM367 572q-24 0 -40.5 16.5t-16.5 41.5q0 23 16.5 40t40.5 17t41 -17t17 -40q0 -25 -17 -41.5t-41 -16.5zM397 116l65 -59q-2 -3 -7 -8t-21 -17t-34 -21.5t-47 -17.5
t-60 -8q-105 0 -179 77.5t-74 187.5t74 187.5t179 77.5q92 0 167 -69v-232h-330q11 -62 55.5 -104.5t107.5 -42.5q32 0 58 12.5t36 24.5zM293 433q-64 0 -108.5 -43t-54.5 -106h247v123q-26 26 -84 26z" />
    <glyph glyph-name="igrave" unicode="&#xec;" horiz-adv-x="218" 
d="M-20 680h109l69 -130h-63zM158 0v500h-85v-500h85z" />
    <glyph glyph-name="iacute" unicode="&#xed;" horiz-adv-x="218" 
d="M238 680l-115 -130h-63l69 130h109zM145 0v500h-85v-500h85z" />
    <glyph glyph-name="icircumflex" unicode="&#xee;" horiz-adv-x="258" 
d="M175 680l113 -130h-90l-69 81l-69 -81h-90l113 130h92zM172 0v500h-85v-500h85z" />
    <glyph glyph-name="idieresis" unicode="&#xef;" horiz-adv-x="265" 
d="M57 572q-24 0 -40.5 16.5t-16.5 41.5q0 23 16.5 40t40.5 17t41 -17t17 -40q0 -25 -17 -41.5t-41 -16.5zM207 572q-24 0 -40.5 16.5t-16.5 41.5q0 23 16.5 40t40.5 17t41 -17t17 -40q0 -25 -17 -41.5t-41 -16.5zM175 0v500h-85v-500h85z" />
    <glyph glyph-name="eth" unicode="&#xf0;" horiz-adv-x="521" 
d="M382 584q99 -108 99 -275q0 -324 -225 -324q-96 0 -156 69t-60 171q0 101 59.5 170.5t147.5 69.5q43 0 83 -22t68 -56q-14 93 -89 163l-141 -65l-28 59l109 51q-51 32 -108 48l34 72q91 -34 154 -82l98 46l31 -60zM256 66q67 0 102.5 48t35.5 111q0 68 -37.5 113
t-106.5 45q-59 0 -92 -48.5t-33 -109.5q0 -65 35 -112t96 -47z" />
    <glyph glyph-name="ntilde" unicode="&#xf1;" horiz-adv-x="550" 
d="M217 615q-20 0 -31.5 -13.5t-13.5 -27.5l-2 -14h-65q0 5 0.5 13t6.5 28.5t16.5 36.5t33 29t53.5 13q30 0 54 -14t42.5 -27.5t34.5 -13.5q20 0 32 13.5t14 27.5l1 14h65q0 -5 -0.5 -13t-6.5 -28.5t-16.5 -36.5t-33 -29t-53.5 -13q-30 0 -54 14t-42.5 27.5t-34.5 13.5z
M314 515q106 0 166 -89v-426h-85v390q-30 40 -100 40q-66 0 -98 -48t-32 -107v-275h-85v500h75l10 -62q47 77 149 77z" />
    <glyph glyph-name="ograve" unicode="&#xf2;" 
d="M144 680h109l69 -130h-63zM284 -15q-97 0 -170.5 78t-73.5 187t73.5 187t170.5 78t170.5 -78t73.5 -187t-73.5 -187t-170.5 -78zM284 70q62 0 108 53t46 127q0 75 -46 127.5t-108 52.5t-108 -52.5t-46 -127.5q0 -74 46 -127t108 -53z" />
    <glyph glyph-name="oacute" unicode="&#xf3;" 
d="M424 680l-115 -130h-63l69 130h109zM284 -15q-97 0 -170.5 78t-73.5 187t73.5 187t170.5 78t170.5 -78t73.5 -187t-73.5 -187t-170.5 -78zM284 70q62 0 108 53t46 127q0 75 -46 127.5t-108 52.5t-108 -52.5t-46 -127.5q0 -74 46 -127t108 -53z" />
    <glyph glyph-name="ocircumflex" unicode="&#xf4;" 
d="M330 680l113 -130h-90l-69 81l-69 -81h-90l113 130h92zM284 -15q-97 0 -170.5 78t-73.5 187t73.5 187t170.5 78t170.5 -78t73.5 -187t-73.5 -187t-170.5 -78zM284 70q62 0 108 53t46 127q0 75 -46 127.5t-108 52.5t-108 -52.5t-46 -127.5q0 -74 46 -127t108 -53z" />
    <glyph glyph-name="otilde" unicode="&#xf5;" 
d="M108 560q0 5 0.5 13t6.5 28.5t16.5 36.5t33 29t53.5 13q30 0 54 -14t42.5 -27.5t34.5 -13.5q20 0 32 13.5t13 27.5l2 14h65q0 -5 -0.5 -13t-6.5 -28.5t-16.5 -36.5t-33 -29t-53.5 -13q-30 0 -54 14t-42.5 27.5t-34.5 13.5q-20 0 -32 -13.5t-14 -27.5l-1 -14h-65zM284 -15
q-97 0 -170.5 78t-73.5 187t73.5 187t170.5 78t170.5 -78t73.5 -187t-73.5 -187t-170.5 -78zM284 70q62 0 108 53t46 127q0 75 -46 127.5t-108 52.5t-108 -52.5t-46 -127.5q0 -74 46 -127t108 -53z" />
    <glyph glyph-name="odieresis" unicode="&#xf6;" 
d="M194 572q-24 0 -40.5 16.5t-16.5 41.5q0 23 16.5 40t40.5 17t41 -17t17 -40q0 -25 -17 -41.5t-41 -16.5zM373 572q-24 0 -40.5 16.5t-16.5 41.5q0 23 16.5 40t40.5 17t41 -17t17 -40q0 -25 -17 -41.5t-41 -16.5zM284 -15q-97 0 -170.5 78t-73.5 187t73.5 187t170.5 78
t170.5 -78t73.5 -187t-73.5 -187t-170.5 -78zM284 70q62 0 108 53t46 127q0 75 -46 127.5t-108 52.5t-108 -52.5t-46 -127.5q0 -74 46 -127t108 -53z" />
    <glyph glyph-name="divide" unicode="&#xf7;" horiz-adv-x="610" 
d="M305 453q-29 0 -48 19.5t-19 47.5t19.5 48t47.5 20t48 -20t20 -48t-20 -47.5t-48 -19.5zM55 360h500v-65h-500v65zM305 68q-29 0 -48 19t-19 48q0 28 19.5 48t47.5 20t48 -20t20 -48t-20 -47.5t-48 -19.5z" />
    <glyph glyph-name="oslash" unicode="&#xf8;" 
d="M470 419q58 -73 58 -168q0 -109 -73.5 -187.5t-170.5 -78.5q-75 0 -138 49l-46 -54l-51 43l49 59q-58 74 -58 169q0 109 73.5 186.5t170.5 77.5q75 0 137 -48l45 54l54 -43zM127 251q0 -56 27 -102l214 256q-39 29 -84 29q-63 0 -110 -53.5t-47 -129.5zM284 67
q63 0 110 54t47 130q0 56 -27 102l-215 -256q39 -30 85 -30z" />
    <glyph glyph-name="ugrave" unicode="&#xf9;" horiz-adv-x="567" 
d="M336 550h-63l-115 130h109zM409 500h83v-500h-73l-10 56q-50 -71 -136 -71q-89 0 -143.5 54t-54.5 126v335h86v-305q0 -21 5 -40.5t16.5 -39.5t36.5 -32.5t61 -12.5q92 0 129 75v355z" />
    <glyph glyph-name="uacute" unicode="&#xfa;" horiz-adv-x="567" 
d="M412 680l-115 -130h-63l69 130h109zM409 500h83v-500h-73l-10 56q-50 -71 -136 -71q-89 0 -143.5 54t-54.5 126v335h86v-305q0 -21 5 -40.5t16.5 -39.5t36.5 -32.5t61 -12.5q92 0 129 75v355z" />
    <glyph glyph-name="ucircumflex" unicode="&#xfb;" horiz-adv-x="567" 
d="M285 631l-69 -81h-90l113 130h92l113 -130h-90zM409 500h83v-500h-73l-10 56q-50 -71 -136 -71q-89 0 -143.5 54t-54.5 126v335h86v-305q0 -21 5 -40.5t16.5 -39.5t36.5 -32.5t61 -12.5q92 0 129 75v355z" />
    <glyph glyph-name="udieresis" unicode="&#xfc;" horiz-adv-x="567" 
d="M194 572q-24 0 -40.5 16.5t-16.5 41.5q0 23 16.5 40t40.5 17t41 -17t17 -40q0 -25 -17 -41.5t-41 -16.5zM373 572q-24 0 -40.5 16.5t-16.5 41.5q0 23 16.5 40t40.5 17t41 -17t17 -40q0 -25 -17 -41.5t-41 -16.5zM409 500h83v-500h-73l-10 56q-50 -71 -136 -71
q-89 0 -143.5 54t-54.5 126v335h86v-305q0 -21 5 -40.5t16.5 -39.5t36.5 -32.5t61 -12.5q92 0 129 75v355z" />
    <glyph glyph-name="yacute" unicode="&#xfd;" horiz-adv-x="493" 
d="M384 680l-115 -130h-63l69 130h109zM483 500q-34 -110 -171 -520q-19 -58 -42 -96t-49.5 -55.5t-49.5 -23t-55 -5.5h-48v75h23q57 0 85.5 29t53.5 96l-220 500h96l162 -391l123 391h92z" />
    <glyph glyph-name="thorn" unicode="&#xfe;" horiz-adv-x="566" 
d="M307 515q96 0 157.5 -76.5t61.5 -188.5q0 -113 -61.5 -189t-157.5 -76q-88 0 -143 69v-254h-84v900h84v-258q56 73 143 73zM297 70q63 0 101 51.5t38 128.5t-38 128.5t-101 51.5q-133 0 -133 -180q0 -84 35 -132t98 -48z" />
    <glyph glyph-name="ydieresis" unicode="&#xff;" horiz-adv-x="493" 
d="M160 572q-24 0 -40.5 16.5t-16.5 41.5q0 23 16.5 40t40.5 17t41 -17t17 -40q0 -25 -17 -41.5t-41 -16.5zM339 572q-24 0 -40.5 16.5t-16.5 41.5q0 23 16.5 40t40.5 17t41 -17t17 -40q0 -25 -17 -41.5t-41 -16.5zM483 500q-34 -110 -171 -520q-19 -58 -42 -96t-49.5 -55.5
t-49.5 -23t-55 -5.5h-48v75h23q57 0 85.5 29t53.5 96l-220 500h96l162 -391l123 391h92z" />
    <glyph glyph-name="Ccaron" unicode="&#x10c;" horiz-adv-x="685" 
d="M402 750h-81l-123 130h95l69 -76l69 76h95zM645 178q-3 -8 -9.5 -21t-31 -46t-54 -58.5t-79.5 -46.5t-107 -21q-132 0 -225.5 106.5t-93.5 258.5q0 153 93.5 259t225.5 106q41 0 78.5 -10.5t64.5 -27.5t50.5 -38t38.5 -41.5t26 -37.5t16 -28l4 -10l-80 -43q-2 6 -7 16
t-22.5 35t-38.5 44t-56 35t-74 16q-102 0 -163 -81.5t-61 -193.5t61 -193.5t163 -81.5q39 0 74 15t57.5 36.5t39 43.5t23.5 37l7 15z" />
    <glyph glyph-name="ccaron" unicode="&#x10d;" horiz-adv-x="505" 
d="M309 550h-92l-113 130h90l69 -81l69 81h90zM471 124q-2 -6 -7 -15t-22.5 -33t-39 -42.5t-57.5 -33.5t-76 -15q-95 0 -162 77.5t-67 187.5q0 111 67 188t162 77q40 0 76 -14.5t58 -35.5t38.5 -41.5t23.5 -35.5l7 -14l-76 -43l-5 10.5t-14 24t-24.5 30.5t-36 23.5
t-47.5 10.5q-58 0 -98.5 -52t-40.5 -128q0 -75 40.5 -127.5t98.5 -52.5q39 0 70.5 24.5t43.5 49.5l12 24z" />
    <glyph glyph-name="Dcaron" unicode="&#x10e;" horiz-adv-x="667" 
d="M372 750h-81l-123 130h95l69 -76l69 76h95zM280 700q143 0 241.5 -104t98.5 -263q0 -113 -53 -201.5t-141 -131.5h-336v700h190zM392 85q51 27 92 88.5t41 159.5q0 115 -73.5 198.5t-171.5 83.5h-100v-530h212z" />
    <glyph glyph-name="dcaron" unicode="&#x10f;" horiz-adv-x="672" 
d="M402 446v269h84v-715h-74l-10 58q-55 -73 -143 -73q-96 0 -157.5 76.5t-61.5 188.5q0 113 61.5 189t157.5 76q88 0 143 -69zM595 706q27 0 43.5 -21t9.5 -60l-33 -194h-40q-23 139 -33 194q-7 39 9.5 60t43.5 21zM269 70q133 0 133 180q0 84 -35 132t-98 48t-101 -51.5
t-38 -128.5t38 -128.5t101 -51.5z" />
    <glyph glyph-name="Ecaron" unicode="&#x11a;" horiz-adv-x="592" 
d="M355 750h-81l-123 130h95l69 -76l69 76h95zM180 85h350v-85h-440v700h430v-85h-340v-217h290v-85h-290v-228z" />
    <glyph glyph-name="ecaron" unicode="&#x11b;" horiz-adv-x="512" 
d="M323 550h-92l-113 130h90l69 -81l69 81h90zM397 116l65 -59q-2 -3 -7 -8t-21 -17t-34 -21.5t-47 -17.5t-60 -8q-105 0 -179 77.5t-74 187.5t74 187.5t179 77.5q92 0 167 -69v-232h-330q11 -62 55.5 -104.5t107.5 -42.5q32 0 58 12.5t36 24.5zM293 433q-64 0 -108.5 -43
t-54.5 -106h247v123q-26 26 -84 26z" />
    <glyph glyph-name="dotlessi" unicode="&#x131;" horiz-adv-x="225" 
d="M155 0v500h-85v-500h85z" />
    <glyph glyph-name="Lslash" unicode="&#x141;" horiz-adv-x="576" 
d="M201 85h350v-85h-440v315l-73 -34l-33 69l106 50v300h90v-258l123 58l36 -70l-159 -74v-271z" />
    <glyph glyph-name="lslash" unicode="&#x142;" horiz-adv-x="259" 
d="M135 165q0 -18 1 -28.5t6.5 -26t19 -23t35.5 -7.5h25v-80h-48q-64 0 -94 43.5t-30 106.5v173l-52 -24l-28 59l80 38v319h85v-279l63 30l31 -60l-94 -44v-197z" />
    <glyph glyph-name="Ncaron" unicode="&#x147;" horiz-adv-x="644" 
d="M359 750h-81l-123 130h95l69 -76l69 76h95zM490 700h90v-700h-90l-340 542v-542h-90v700h90l340 -542v542z" />
    <glyph glyph-name="ncaron" unicode="&#x148;" horiz-adv-x="551" 
d="M327 550h-92l-113 130h90l69 -81l69 81h90zM314 515q106 0 166 -89v-426h-85v390q-30 40 -100 40q-66 0 -98 -48t-32 -107v-275h-85v500h75l10 -62q47 77 149 77z" />
    <glyph glyph-name="OE" unicode="&#x152;" horiz-adv-x="1090" 
d="M680 85h350v-85h-440v89q-91 -104 -225 -104t-227 106.5t-93 258.5q0 153 93 259t227 106q133 0 225 -103v88h430v-85h-340v-217h290v-85h-290v-228zM365 75q98 0 161.5 83.5t63.5 191.5t-63.5 191.5t-161.5 83.5t-161.5 -83.5t-63.5 -191.5t63.5 -191.5t161.5 -83.5z
" />
    <glyph glyph-name="oe" unicode="&#x153;" horiz-adv-x="910" 
d="M795 116l65 -59q-2 -3 -7 -8t-21 -17t-34 -21.5t-47 -17.5t-60 -8q-64 0 -119 30.5t-89 83.5q-35 -53 -88 -83.5t-111 -30.5q-97 0 -170.5 78t-73.5 187t73.5 187t170.5 78q58 0 111 -30.5t88 -83.5q34 53 89 83.5t119 30.5q92 0 167 -69v-232h-330q11 -62 55.5 -104.5
t107.5 -42.5q32 0 58 12.5t36 24.5zM691 433q-64 0 -108.5 -43t-54.5 -106h247v123q-26 26 -84 26zM284 70q62 0 108 53t46 127q0 75 -46 127.5t-108 52.5t-108 -52.5t-46 -127.5q0 -74 46 -127t108 -53z" />
    <glyph glyph-name="Rcaron" unicode="&#x158;" horiz-adv-x="615" 
d="M353 750h-81l-123 130h95l69 -76l69 76h95zM470 0l-123 243h-167v-243h-90v700h220q105 0 177.5 -68.5t72.5 -171.5q0 -57 -34 -114t-91 -85l134 -261h-99zM180 615v-287h185q40 7 70 44.5t30 84.5q0 67 -49 112.5t-106 45.5h-130z" />
    <glyph glyph-name="rcaron" unicode="&#x159;" horiz-adv-x="362" 
d="M262 550h-92l-113 130h90l69 -81l69 81h90zM162 428q49 72 131 72h48v-81h-23q-73 0 -114.5 -42.5t-41.5 -116.5v-260h-82v500h72z" />
    <glyph glyph-name="Scaron" unicode="&#x160;" horiz-adv-x="570" 
d="M322 750h-81l-123 130h95l69 -76l69 76h95zM385 569l-11 16t-33.5 26t-57.5 16q-43 0 -71 -21.5t-28 -56.5q0 -53 72 -94l118 -66q76 -42 113.5 -86t37.5 -104q0 -93 -64.5 -153.5t-180.5 -60.5q-53 0 -98 18t-74.5 47t-45.5 51t-27 44l80 43q41 -62 82.5 -87.5
t100.5 -25.5q51 0 92 30t41 82q0 25 -7 44t-25.5 35t-29 23t-38.5 22l-118 66q-128 72 -128 166q0 68 56.5 120t145.5 52q38 0 70 -10.5t51 -25.5t33 -30.5t19 -26.5l5 -10z" />
    <glyph glyph-name="scaron" unicode="&#x161;" horiz-adv-x="434" 
d="M260 550h-92l-113 130h90l69 -81l69 81h90zM306 374q-1 2 -2.5 6.5t-9 15t-16.5 18.5t-25.5 14.5t-35.5 6.5q-37 0 -57 -17.5t-20 -48.5q0 -27 14.5 -40t40.5 -23l92 -37q107 -44 107 -136q0 -71 -48 -109.5t-124 -38.5q-38 0 -71 12t-53 29t-35 34t-21 29l-7 12l73 36
q1 -3 4 -8.5t13 -18.5t22.5 -23t33.5 -18.5t45 -8.5q39 0 63.5 18t24.5 45t-16 46t-62 37l-76 30q-102 41 -102 132q0 57 42 102t114 45q34 0 63.5 -11t46.5 -27t29 -32t17 -27l4 -11z" />
    <glyph glyph-name="Tcaron" unicode="&#x164;" horiz-adv-x="540" 
d="M310 750h-81l-123 130h95l69 -76l69 76h95zM528 700v-85h-214v-615h-90v615h-214v85h518z" />
    <glyph glyph-name="tcaron" unicode="&#x165;" horiz-adv-x="415" 
d="M348 706q27 0 43.5 -21t9.5 -60l-33 -194h-40q-23 139 -33 194q-7 39 9.5 60t43.5 21zM160 640v-140h107v-80h-107v-255q0 -18 1 -28.5t6.5 -26t19 -23t35.5 -7.5h25v-80h-48q-64 0 -94 43.5t-30 106.5v270h-55v80h14q27 0 37 12t10 39v89h79z" />
    <glyph glyph-name="Uring" unicode="&#x16e;" horiz-adv-x="680" 
d="M340 656q-53 0 -89 35.5t-36 89.5t36 89.5t89 35.5t89 -35.5t36 -89.5t-36 -89.5t-89 -35.5zM340 728q23 0 38 15t15 38t-15 37.5t-38 14.5q-22 0 -37 -14.5t-15 -37.5t15 -38t37 -15zM600 700v-415q0 -145 -69.5 -222.5t-190.5 -77.5t-190.5 77.5t-69.5 222.5v415h90
v-415q0 -104 50 -157t120 -53t120 53t50 157v415h90z" />
    <glyph glyph-name="uring" unicode="&#x16f;" 
d="M286 512q-53 0 -89 35.5t-36 89.5t36 89.5t89 35.5t89 -35.5t36 -89.5t-36 -89.5t-89 -35.5zM286 689q-22 0 -37 -14.5t-15 -37.5t15 -38t37 -15q23 0 38 15t15 38t-15 37.5t-38 14.5zM409 500h83v-500h-73l-10 56q-50 -71 -136 -71q-89 0 -143.5 54t-54.5 126v335h86
v-305q0 -21 5 -40.5t16.5 -39.5t36.5 -32.5t61 -12.5q92 0 129 75v355z" />
    <glyph glyph-name="Wcircumflex" unicode="&#x174;" horiz-adv-x="870" 
d="M475 880l124 -130h-95l-69 76l-69 -76h-95l123 130h81zM855 700l-187 -700h-113l-120 577l-120 -577h-113l-187 700h102l139 -586l122 586h114l122 -586l139 586h102z" />
    <glyph glyph-name="wcircumflex" unicode="&#x175;" horiz-adv-x="712" 
d="M402 680l113 -130h-90l-69 81l-69 -81h-90l113 130h92zM697 500l-162 -500h-77l-102 356l-101 -356h-77l-163 500h89l115 -369l97 369h79l98 -369l115 369h89z" />
    <glyph glyph-name="Ycircumflex" unicode="&#x176;" horiz-adv-x="558" 
d="M279 826l-69 -76h-95l123 130h81l124 -130h-95zM548 700q-46 -222 -225 -402v-298h-90v300q-177 178 -223 400h96q31 -170 173 -318q142 151 173 318h96z" />
    <glyph glyph-name="ycircumflex" unicode="&#x177;" horiz-adv-x="493" 
d="M294 680l113 -130h-90l-69 81l-69 -81h-90l113 130h92zM483 500q-34 -110 -171 -520q-19 -58 -42 -96t-49.5 -55.5t-49.5 -23t-55 -5.5h-48v75h23q57 0 85.5 29t53.5 96l-220 500h96l162 -391l123 391h92z" />
    <glyph glyph-name="Ydieresis" unicode="&#x178;" horiz-adv-x="558" 
d="M189 767q-24 0 -40.5 16.5t-16.5 41.5q0 23 16.5 40t40.5 17t41 -17t17 -40q0 -25 -17 -41.5t-41 -16.5zM368 767q-24 0 -40.5 16.5t-16.5 41.5q0 23 16.5 40t40.5 17t41 -17t17 -40q0 -25 -17 -41.5t-41 -16.5zM548 700q-46 -222 -225 -402v-298h-90v300
q-177 178 -223 400h96q31 -170 173 -318q142 151 173 318h96z" />
    <glyph glyph-name="Zcaron" unicode="&#x17d;" horiz-adv-x="545" 
d="M318 750h-81l-123 130h95l69 -76l69 76h95zM152 85h353v-85h-460v90l347 525h-337v85h445v-90z" />
    <glyph glyph-name="zcaron" unicode="&#x17e;" horiz-adv-x="500" 
d="M296 550h-92l-113 130h90l69 -81l69 81h90zM460 79v-79h-420v83l305 338h-285v79h390v-83l-305 -338h315z" />
    <glyph glyph-name="circumflex" unicode="&#x2c6;" horiz-adv-x="388" 
d="M240 680l113 -130h-90l-69 81l-69 -81h-90l113 130h92z" />
    <glyph glyph-name="caron" unicode="&#x2c7;" horiz-adv-x="388" 
d="M240 550h-92l-113 130h90l69 -81l69 81h90z" />
    <glyph glyph-name="breve" unicode="&#x2d8;" horiz-adv-x="350" 
d="M315 680q0 -59 -42 -91t-98 -32q-57 0 -98.5 32t-41.5 91h74q0 -25 18.5 -44t47.5 -19t47.5 19t18.5 44h74z" />
    <glyph glyph-name="dotaccent" unicode="&#x2d9;" horiz-adv-x="185" 
d="M93 550q-29 0 -48.5 20t-19.5 48q0 27 20 47t48 20q27 0 47 -20t20 -47q0 -28 -20 -48t-47 -20z" />
    <glyph glyph-name="ring" unicode="&#x2da;" horiz-adv-x="280" 
d="M140 551q-45 0 -75 30t-30 75t30 75t75 30t75 -30t30 -75t-30 -75t-75 -30zM140 611q19 0 31.5 12.5t12.5 32.5t-12 32t-32 12t-32.5 -12.5t-12.5 -31.5q0 -20 12.5 -32.5t32.5 -12.5z" />
    <glyph glyph-name="tilde" unicode="&#x2dc;" horiz-adv-x="423" 
d="M35 560q0 5 0.5 13t6.5 28.5t16.5 36.5t33 29t53.5 13q30 0 54 -14t42.5 -27.5t34.5 -13.5q20 0 32 13.5t14 27.5l1 14h65q0 -5 -0.5 -13t-6.5 -28.5t-16.5 -36.5t-33 -29t-53.5 -13q-30 0 -54 14t-42.5 27.5t-34.5 13.5q-20 0 -32 -13.5t-13 -27.5l-2 -14h-65z" />
    <glyph glyph-name="hungarumlaut" unicode="&#x2dd;" horiz-adv-x="408" 
d="M213 680l-115 -130h-63l69 130h109zM373 680l-115 -130h-63l69 130h109z" />
    <glyph glyph-name="Wgrave" unicode="&#x1e80;" horiz-adv-x="870" 
d="M283 880h125l79 -110h-79zM855 700l-187 -700h-113l-120 577l-120 -577h-113l-187 700h102l139 -586l122 586h114l122 -586l139 586h102z" />
    <glyph glyph-name="wgrave" unicode="&#x1e81;" horiz-adv-x="712" 
d="M227 680h109l69 -130h-63zM697 500l-162 -500h-77l-102 356l-101 -356h-77l-163 500h89l115 -369l97 369h79l98 -369l115 369h89z" />
    <glyph glyph-name="Wacute" unicode="&#x1e82;" horiz-adv-x="870" 
d="M587 880l-125 -110h-79l79 110h125zM855 700l-187 -700h-113l-120 577l-120 -577h-113l-187 700h102l139 -586l122 586h114l122 -586l139 586h102z" />
    <glyph glyph-name="wacute" unicode="&#x1e83;" horiz-adv-x="712" 
d="M484 680l-115 -130h-63l69 130h109zM697 500l-162 -500h-77l-102 356l-101 -356h-77l-163 500h89l115 -369l97 369h79l98 -369l115 369h89z" />
    <glyph glyph-name="Wdieresis" unicode="&#x1e84;" horiz-adv-x="870" 
d="M345 767q-24 0 -40.5 16.5t-16.5 41.5q0 23 16.5 40t40.5 17t41 -17t17 -40q0 -25 -17 -41.5t-41 -16.5zM524 767q-24 0 -40.5 16.5t-16.5 41.5q0 23 16.5 40t40.5 17t41 -17t17 -40q0 -25 -17 -41.5t-41 -16.5zM855 700l-187 -700h-113l-120 577l-120 -577h-113
l-187 700h102l139 -586l122 586h114l122 -586l139 586h102z" />
    <glyph glyph-name="wdieresis" unicode="&#x1e85;" horiz-adv-x="712" 
d="M266 572q-24 0 -40.5 16.5t-16.5 41.5q0 23 16.5 40t40.5 17t41 -17t17 -40q0 -25 -17 -41.5t-41 -16.5zM446 572q-24 0 -40.5 16.5t-16.5 41.5q0 23 16.5 40t40.5 17t41 -17t17 -40q0 -25 -17 -41.5t-41 -16.5zM697 500l-162 -500h-77l-102 356l-101 -356h-77l-163 500
h89l115 -369l97 369h79l98 -369l115 369h89z" />
    <glyph glyph-name="uni1E9E" unicode="&#x1e9e;" horiz-adv-x="1130" 
d="M385 569l-11 16t-33.5 26t-57.5 16q-43 0 -71 -21.5t-28 -56.5q0 -53 72 -94l118 -66q76 -42 113.5 -86t37.5 -104q0 -93 -64.5 -153.5t-180.5 -60.5q-53 0 -98 18t-74.5 47t-45.5 51t-27 44l80 43q41 -62 82.5 -87.5t100.5 -25.5q51 0 92 30t41 82q0 25 -7 44t-25.5 35
t-29 23t-38.5 22l-118 66q-128 72 -128 166q0 68 56.5 120t145.5 52q38 0 70 -10.5t51 -25.5t33 -30.5t19 -26.5l5 -10zM945 569l-11 16t-33.5 26t-57.5 16q-43 0 -71 -21.5t-28 -56.5q0 -53 72 -94l118 -66q76 -42 113.5 -86t37.5 -104q0 -93 -64.5 -153.5t-180.5 -60.5
q-53 0 -98 18t-74.5 47t-45.5 51t-27 44l80 43q41 -62 82.5 -87.5t100.5 -25.5q51 0 92 30t41 82q0 25 -7 44t-25.5 35t-29 23t-38.5 22l-118 66q-128 72 -128 166q0 68 56.5 120t145.5 52q38 0 70 -10.5t51 -25.5t33 -30.5t19 -26.5l5 -10z" />
    <glyph glyph-name="Ygrave" unicode="&#x1ef2;" horiz-adv-x="558" 
d="M336 770h-79l-125 110h125zM548 700q-46 -222 -225 -402v-298h-90v300q-177 178 -223 400h96q31 -170 173 -318q142 151 173 318h96z" />
    <glyph glyph-name="ygrave" unicode="&#x1ef3;" horiz-adv-x="493" 
d="M113 680h109l69 -130h-63zM483 500q-34 -110 -171 -520q-19 -58 -42 -96t-49.5 -55.5t-49.5 -23t-55 -5.5h-48v75h23q57 0 85.5 29t53.5 96l-220 500h96l162 -391l123 391h92z" />
    <glyph glyph-name="uni2007" unicode="&#x2007;" horiz-adv-x="620" 
 />
    <glyph glyph-name="uni2008" unicode="&#x2008;" horiz-adv-x="310" 
 />
    <glyph glyph-name="uni200B" unicode="&#x200b;" horiz-adv-x="0" 
 />
    <glyph glyph-name="endash" unicode="&#x2013;" horiz-adv-x="630" 
d="M65 368h500v-80h-500v80z" />
    <glyph glyph-name="emdash" unicode="&#x2014;" horiz-adv-x="1090" 
d="M75 368h940v-80h-940v80z" />
    <glyph glyph-name="quoteleft" unicode="&#x2018;" horiz-adv-x="206" 
d="M40 571q0 62 34.5 98t89.5 36v-30q-29 0 -51 -19t-22 -41q36 6 55.5 -14.5t19.5 -47.5q0 -25 -18.5 -42t-40.5 -17q-29 0 -47.5 19t-19.5 58z" />
    <glyph glyph-name="quoteright" unicode="&#x2019;" horiz-adv-x="206" 
d="M166 628q0 -62 -34.5 -98t-89.5 -36v30q29 0 51 19t22 41q-36 -6 -55.5 14.5t-19.5 47.5q0 25 18.5 42t40.5 17q29 0 47.5 -19t19.5 -58z" />
    <glyph glyph-name="quotesinglbase" unicode="&#x201a;" horiz-adv-x="206" 
d="M166 54q0 -62 -34.5 -98t-89.5 -36v30q29 0 51 19t22 41q-36 -6 -55.5 14.5t-19.5 47.5q0 25 18.5 42t40.5 17q29 0 47.5 -19t19.5 -58z" />
    <glyph glyph-name="quotedblleft" unicode="&#x201c;" horiz-adv-x="366" 
d="M40 571q0 62 34.5 98t89.5 36v-30q-29 0 -51 -19t-22 -41q36 6 55.5 -14.5t19.5 -47.5q0 -25 -18.5 -42t-40.5 -17q-29 0 -47.5 19t-19.5 58zM200 571q0 62 34.5 98t89.5 36v-30q-29 0 -51 -19t-22 -41q36 6 55.5 -14.5t19.5 -47.5q0 -25 -18.5 -42t-40.5 -17
q-29 0 -47.5 19t-19.5 58z" />
    <glyph glyph-name="quotedblright" unicode="&#x201d;" horiz-adv-x="366" 
d="M166 628q0 -62 -34.5 -98t-89.5 -36v30q29 0 51 19t22 41q-36 -6 -55.5 14.5t-19.5 47.5q0 25 18.5 42t40.5 17q29 0 47.5 -19t19.5 -58zM326 628q0 -62 -34.5 -98t-89.5 -36v30q29 0 51 19t22 41q-36 -6 -55.5 14.5t-19.5 47.5q0 25 18.5 42t40.5 17q29 0 47.5 -19
t19.5 -58z" />
    <glyph glyph-name="quotedblbase" unicode="&#x201e;" horiz-adv-x="366" 
d="M166 54q0 -62 -34.5 -98t-89.5 -36v30q29 0 51 19t22 41q-36 -6 -55.5 14.5t-19.5 47.5q0 25 18.5 42t40.5 17q29 0 47.5 -19t19.5 -58zM326 54q0 -62 -34.5 -98t-89.5 -36v30q29 0 51 19t22 41q-36 -6 -55.5 14.5t-19.5 47.5q0 25 18.5 42t40.5 17q29 0 47.5 -19
t19.5 -58z" />
    <glyph glyph-name="bullet" unicode="&#x2022;" horiz-adv-x="740" 
d="M370 45q-126 0 -213 87t-87 213q0 124 87.5 212t212.5 88q124 0 212 -88t88 -212q0 -125 -88 -212.5t-212 -87.5z" />
    <glyph glyph-name="ellipsis" unicode="&#x2026;" horiz-adv-x="865" 
d="M157 -10q-28 0 -47.5 19.5t-19.5 48.5q0 28 19.5 47.5t47.5 19.5t48 -19.5t20 -47.5t-20 -48t-48 -20zM432 -10q-28 0 -47.5 19.5t-19.5 48.5q0 28 19.5 47.5t47.5 19.5t48 -19.5t20 -47.5t-20 -48t-48 -20zM707 -10q-28 0 -47.5 19.5t-19.5 48.5q0 28 19.5 47.5
t47.5 19.5t48 -19.5t20 -47.5t-20 -48t-48 -20z" />
    <glyph glyph-name="perthousand" unicode="&#x2030;" horiz-adv-x="1154" 
d="M601 700h86l-479 -700h-86zM210 355q-66 0 -110.5 44t-44.5 111t44.5 111t110.5 44t110.5 -44t44.5 -111t-44.5 -111t-110.5 -44zM210 432q34 0 55.5 22t21.5 56t-21.5 55.5t-55.5 21.5t-56 -21.5t-22 -55.5t22 -56t56 -22zM600 35q-66 0 -110.5 44t-44.5 111t44.5 111
t110.5 44t110.5 -44t44.5 -111t-44.5 -111t-110.5 -44zM954 35q-66 0 -110.5 44t-44.5 111t44.5 111t110.5 44t110.5 -44t44.5 -111t-44.5 -111t-110.5 -44zM600 112q34 0 55.5 22t21.5 56t-21.5 55.5t-55.5 21.5t-56 -21.5t-22 -55.5t22 -56t56 -22zM954 112q34 0 55.5 22
t21.5 56t-21.5 55.5t-55.5 21.5t-56 -21.5t-22 -55.5t22 -56t56 -22z" />
    <glyph glyph-name="guilsinglleft" unicode="&#x2039;" horiz-adv-x="290" 
d="M30 309l181 216l59 -58l-141 -158l141 -158l-59 -58z" />
    <glyph glyph-name="guilsinglright" unicode="&#x203a;" horiz-adv-x="290" 
d="M260 309l-181 -216l-59 58l141 158l-141 158l59 58z" />
    <glyph glyph-name="Euro" unicode="&#x20ac;" horiz-adv-x="641" 
d="M439 62q40 0 74 11t47 23l14 11l42 -65q-8 -6 -22.5 -15.5t-61 -25.5t-93.5 -16q-103 0 -186 68.5t-113 175.5h-75v65h62q-2 26 -2 40q0 31 4 55h-64v65h79q33 102 114 166.5t181 64.5q47 0 91.5 -14.5t65.5 -28.5l20 -15l-42 -64q-5 5 -15 12.5t-45 20t-75 12.5
q-70 0 -125.5 -41.5t-81.5 -112.5h268v-65h-284q-4 -24 -4 -55q0 -14 2 -40h286v-65h-273q25 -77 81.5 -122t130.5 -45z" />
    <glyph glyph-name="trademark" unicode="&#x2122;" horiz-adv-x="761" 
d="M300 640h-101v-290h-68v290h-101v60h270v-60zM701 700v-350h-60v246l-88 -246h-50l-88 246v-246h-60v350h87l86 -244l86 244h87z" />
    <glyph glyph-name="arrowleft" unicode="&#x2190;" horiz-adv-x="816" 
d="M766 379v-79h-582l205 -237l-63 -53l-276 329l276 329l63 -53l-204 -236h581z" />
    <glyph glyph-name="arrowup" unicode="&#x2191;" horiz-adv-x="738" 
d="M698 440l-53 -63l-234 202v-579h-84v579l-234 -202l-53 63l329 276z" />
    <glyph glyph-name="arrowright" unicode="&#x2192;" horiz-adv-x="816" 
d="M490 668l276 -329l-276 -329l-63 53l205 237h-582v79h581l-204 236z" />
    <glyph glyph-name="arrowdown" unicode="&#x2193;" horiz-adv-x="698" 
d="M625 286l53 -63l-329 -276l-329 276l53 63l234 -202v579h84v-579z" />
    <glyph glyph-name="arrowboth" unicode="&#x2194;" horiz-adv-x="1166" 
d="M840 668l276 -329l-276 -329l-63 53l206 238h-800l206 -238l-63 -53l-276 329l276 329l63 -53l-205 -237h798l-205 237z" />
    <glyph glyph-name="arrowupdn" unicode="&#x2195;" horiz-adv-x="758" 
d="M420 -47l235 203l53 -63l-329 -276l-329 276l53 63l235 -203v794l-235 -203l-53 63l329 276l329 -276l-53 -63l-235 203v-794z" />
    <glyph glyph-name="uni2196" unicode="&#x2196;" horiz-adv-x="664" 
d="M644 65l-59 -59l-414 413l-23 -313l-78 7l38 428l428 38l7 -76l-316 -23z" />
    <glyph glyph-name="uni2197" unicode="&#x2197;" horiz-adv-x="664" 
d="M594 113l-78 -7l-23 313l-414 -413l-59 59l417 415l-316 23l7 76l428 -38z" />
    <glyph glyph-name="uni2198" unicode="&#x2198;" horiz-adv-x="664" 
d="M516 539l78 -7l-38 -428l-428 -38l-7 76l316 23l-417 415l59 59l414 -413z" />
    <glyph glyph-name="uni2199" unicode="&#x2199;" horiz-adv-x="664" 
d="M644 580l-417 -415l316 -23l-7 -76l-428 38l-38 428l78 7l23 -313l414 413z" />
    <glyph glyph-name="emptyset" unicode="&#x2205;" horiz-adv-x="600" 
d="M493 429q67 -75 67 -178q0 -110 -76.5 -188t-183.5 -78q-77 0 -143 45l-50 -59l-50 41l51 61q-68 76 -68 178q0 110 77 187.5t183 77.5q79 0 143 -44l48 58l53 -41zM116 251q0 -70 40 -121l241 288q-46 30 -97 30q-74 0 -129 -56.5t-55 -140.5zM300 54q74 0 129 57
t55 140q0 67 -39 121l-242 -288q46 -30 97 -30z" />
    <glyph glyph-name="minus" unicode="&#x2212;" horiz-adv-x="590" 
d="M55 366h480v-75h-480v75z" />
    <glyph glyph-name="approxequal" unicode="&#x2248;" horiz-adv-x="581" 
d="M35 403q2 3 6.5 9t20 20.5t33.5 25.5t46.5 20t59.5 9q41 0 98 -28.5t91 -28.5q27 0 53 12t39 24l13 11l51 -38q-2 -3 -6.5 -9t-20 -20t-33.5 -25t-46.5 -20t-59.5 -9q-41 0 -98 28.5t-91 28.5q-27 0 -53 -11.5t-39 -23.5l-13 -12zM35 217q2 3 6.5 9t20 20.5t33.5 25.5
t46.5 20t59.5 9q41 0 98 -28.5t91 -28.5q27 0 53 12t39 24l13 11l51 -38q-2 -3 -6.5 -9t-20 -20t-33.5 -25t-46.5 -20t-59.5 -9q-41 0 -98 28.5t-91 28.5q-27 0 -53 -11.5t-39 -23.5l-13 -12z" />
    <glyph glyph-name="notequal" unicode="&#x2260;" horiz-adv-x="610" 
d="M545 391h-165l-73 -125h238v-75h-282l-90 -153l-56 33l69 120h-121v75h163l72 125h-235v75h278l84 148l64 -33l-67 -115h121v-75z" />
    <glyph glyph-name="lessequal" unicode="&#x2264;" horiz-adv-x="610" 
d="M65 293v114l480 132v-85l-406 -104l406 -104v-85zM545 120v-70h-480v70h480z" />
    <glyph glyph-name="greaterequal" unicode="&#x2265;" horiz-adv-x="610" 
d="M545 293l-480 -132v85l406 104l-406 104v85l480 -132v-114zM65 120h480v-70h-480v70z" />
    <glyph glyph-name="dotmath" unicode="&#x22c5;" horiz-adv-x="275" 
d="M137 278q-28 0 -47.5 19.5t-19.5 48.5q0 28 19.5 47.5t47.5 19.5t48 -19.5t20 -47.5t-20 -48t-48 -20z" />
    <glyph glyph-name="uni2713" unicode="&#x2713;" horiz-adv-x="955" 
d="M835 685l60 -50l-544 -650l-326 273l49 61l265 -225z" />
    <glyph glyph-name="f_f_j" horiz-adv-x="819" 
d="M691 725q28 0 48 -19.5t20 -47.5t-20 -48t-48 -20t-47.5 19.5t-19.5 48.5q0 28 19.5 47.5t47.5 19.5zM734 500v-550q0 -63 -30 -106.5t-94 -43.5h-48v80h25q22 0 35.5 7.5t19 23t6.5 26t1 28.5v455h-202v-420h-85v420h-202v-420h-85v420h-55v80h55v60q0 63 30 106.5
t94 43.5h48v-80h-25q-22 0 -35.5 -7.5t-19 -23t-6.5 -26t-1 -28.5v-45h202v60q0 63 30 106.5t94 43.5h48v-80h-25q-22 0 -35.5 -7.5t-19 -23t-6.5 -26t-1 -28.5v-45h287z" />
    <glyph glyph-name="f_i" horiz-adv-x="532" 
d="M405 725q28 0 47.5 -19.5t19.5 -47.5t-19.5 -48t-47.5 -20q-29 0 -48.5 20t-19.5 48t20 47.5t48 19.5zM447 500v-500h-85v420h-202v-420h-85v420h-55v80h55v60q0 63 30 106.5t94 43.5h48v-80h-25q-22 0 -35.5 -7.5t-19 -23t-6.5 -26t-1 -28.5v-45h287z" />
    <glyph glyph-name="f_j" horiz-adv-x="532" 
d="M404 725q28 0 48 -19.5t20 -47.5t-20 -48t-48 -20t-47.5 19.5t-19.5 48.5q0 28 19.5 47.5t47.5 19.5zM447 500v-550q0 -63 -30 -106.5t-94 -43.5h-48v80h25q22 0 35.5 7.5t19 23t6.5 26t1 28.5v455h-202v-420h-85v420h-55v80h55v60q0 63 30 106.5t94 43.5h48v-80h-25
q-22 0 -35.5 -7.5t-19 -23t-6.5 -26t-1 -28.5v-45h287z" />
    <glyph glyph-name="f_l" horiz-adv-x="594" 
d="M509 80h25v-80h-48q-64 0 -94 43.5t-30 106.5v270h-202v-420h-85v420h-55v80h55v60q0 63 30 106.5t94 43.5h48v-80h-25q-22 0 -35.5 -7.5t-19 -23t-6.5 -26t-1 -28.5v-45h202v215h85v-550q0 -18 1 -28.5t6.5 -26t19 -23t35.5 -7.5z" />
    </font>
</defs>
</svg>
